<?xml version="1.0" encoding="UTF-8"?>
<svg id="b" data-name="Слой 2" xmlns="http://www.w3.org/2000/svg" width="250" height="250" viewBox="0 0 250 250">
  <path d="m161.05,57.33c-17.83-20.24-28.42-36.33-33.11-44.06-1.96-3.23-3.99-3.08-6.13.42-4.82,7.88-15.35,23.76-32.85,43.64-23.77,26.99-46.79,49.82-58,65.28-1.26,1.74-1.36,4.1-.2,5.91,11.74,18.43,40.74,38.46,62.06,64.65,16.52,20.3,24.95,34.53,29.29,42.85,2.9,5.57,4.8,2.02,5.43.75,4.08-8.28,12.64-22.69,29.66-43.6,21.31-26.19,50.32-46.22,62.06-64.65,1.16-1.82,1.06-4.17-.2-5.91-11.21-15.45-34.23-38.28-58-65.28Z" fill="currentColor"/>
</svg>