<?xml version="1.0" encoding="UTF-8"?>
<svg id="b" data-name="Слой 2" xmlns="http://www.w3.org/2000/svg" width="250" height="250" viewBox="0 0 250 250">
  <path d="m23.27,94.52c11.25,34.71,44.99,51.1,71.99,87.42,17.24,23.19,24.56,37.6,27.6,44.99,1.72,4.18,2.58,4.09,4.41-.31,3.11-7.48,10.47-21.81,27.47-44.68,27-36.32,60.74-52.71,71.99-87.42,11.25-34.71-5.78-68.13-33.42-72.95-27.64-4.82-46.95.91-62.8,26.99-2.53,4.17-2.58,9.27-5.51,9.49-2.46.18-2.96-5.33-5.51-9.49-14.7-23.94-35.16-31.82-62.8-26.99C29.05,26.39,12.02,59.81,23.27,94.52Z" fill="currentColor"/>
</svg>