<?xml version="1.0" encoding="UTF-8"?>
<svg id="b" data-name="Слой 2" xmlns="http://www.w3.org/2000/svg" width="250" height="250" viewBox="0 0 250 250">
  <path d="m215.97,130.1c-5.81-17.92-29.37-31.52-58.98-26.23-2.66.47-3.83-1.27-1.88-3.13,10.02-9.55,16.38-23.78,16.38-39.68,0-28.77-20.82-52.09-46.49-52.09s-46.5,23.32-46.5,52.09c0,14.57,5.35,27.74,13.96,37.19,2.25,2.46,1.49,4.93-1.38,4.38-26.99-5.21-49.95,5.57-57.05,27.47-10.06,31.04,5.17,60.92,29.89,65.23,24.71,4.31,46.27-15.52,49.43-24.14,3.16-8.62,7.76-6.03,7.18,1.72-.57,7.76-4.89,31.61-21.55,54.31-3.23,4.01-6.23,7.2-8.55,9.5-1.59,1.58-.46,4.29,1.78,4.29h65.58c2.24,0,3.37-2.72,1.78-4.29-2.32-2.3-5.32-5.49-8.55-9.5-16.67-22.7-20.98-46.55-21.55-54.31-.57-7.76,4.02-10.35,7.18-1.72,3.16,8.62,24.71,28.45,49.43,24.14,24.71-4.31,39.95-34.2,29.89-65.23Z" fill="currentColor"/>
</svg>