<svg width="250" height="250" viewBox="0 0 250 250" fill="none" xmlns="http://www.w3.org/2000/svg">
<path d="M215.97 130.1C210.16 112.18 186.6 98.58 156.99 103.87C154.33 104.34 153.16 102.6 155.11 100.74C165.13 91.19 171.49 76.96 171.49 61.06C171.49 32.29 150.67 8.97 125 8.97C99.33 8.97 78.5 32.29 78.5 61.06C78.5 75.63 83.85 88.8 92.46 98.25C94.71 100.71 93.95 103.18 91.08 102.63C64.09 97.42 41.13 108.2 34.03 130.1C23.97 161.14 39.2 191.02 63.92 195.33C88.63 199.64 110.19 179.81 113.35 171.19C116.51 162.57 121.11 165.16 120.53 172.91C119.96 180.67 115.64 204.52 98.98 227.22C95.75 231.23 92.75 234.42 90.43 236.72C88.84 238.3 89.97 241.01 92.21 241.01H157.79C160.03 241.01 161.16 238.29 159.57 236.72C157.25 234.42 154.25 231.23 151.02 227.22C134.35 204.52 130.04 180.67 129.47 172.91C128.9 165.15 133.49 162.56 136.65 171.19C139.81 179.81 161.36 199.64 186.08 195.33C210.79 191.02 226.03 161.13 215.97 130.1Z" fill="black"/>
</svg>
