<svg width="250" height="250" viewBox="0 0 250 250" fill="none" xmlns="http://www.w3.org/2000/svg">
<path d="M161.05 57.33C143.22 37.09 132.63 21 127.94 13.27C125.98 10.04 123.95 10.19 121.81 13.69C116.99 21.57 106.46 37.45 88.9602 57.33C65.1902 84.32 42.1702 107.15 30.9602 122.61C29.7002 124.35 29.6002 126.71 30.7602 128.52C42.5002 146.95 71.5002 166.98 92.8202 193.17C109.34 213.47 117.77 227.7 122.11 236.02C125.01 241.59 126.91 238.04 127.54 236.77C131.62 228.49 140.18 214.08 157.2 193.17C178.51 166.98 207.52 146.95 219.26 128.52C220.42 126.7 220.32 124.35 219.06 122.61C207.85 107.16 184.83 84.33 161.06 57.33H161.05Z" fill="#AA0505"/>
</svg>
