<svg width="8" height="7" viewBox="0 0 8 7" fill="none" xmlns="http://www.w3.org/2000/svg">
<path d="M3.85778 6.9231L2.19112 5.50298L1.71785 4.99891C1.14584 4.38966 0.634511 3.72615 0.191121 3.01777C-0.0232711 2.56108 -0.0586138 2.04059 0.0920725 1.55911L0.191121 1.24262L0.206365 1.20163C0.406825 0.66252 0.847304 0.247788 1.39749 0.0801234C1.57177 0.0270133 1.75296 1.85966e-05 1.93516 1.85966e-05H2.52445L2.75212 0.0404334C3.23643 0.126404 3.64876 0.442337 3.85778 0.887593C4.06596 0.444137 4.48248 0.134477 4.96711 0.0628572L5.39232 1.85966e-05H5.71182C6.07642 1.85966e-05 6.43461 0.095962 6.7504 0.278212C7.03731 0.443794 7.26659 0.69332 7.40736 0.993185L7.52445 1.24262C7.73885 1.69932 7.77419 2.2198 7.6235 2.70128L7.54651 2.94729C7.53187 2.99408 7.51129 3.03881 7.48527 3.08037L7.27214 3.42088C6.99656 3.86115 6.67876 4.27354 6.32323 4.65221L5.52445 5.50298L3.85778 6.9231Z" fill="#F51925"/>
</svg>
