<svg width="250" height="250" viewBox="0 0 250 250" fill="none" xmlns="http://www.w3.org/2000/svg">
<path d="M23.2702 94.52C34.5202 129.23 68.2602 145.62 95.2602 181.94C112.5 205.13 119.82 219.54 122.86 226.93C124.58 231.11 125.44 231.02 127.27 226.62C130.38 219.14 137.74 204.81 154.74 181.94C181.74 145.62 215.48 129.23 226.73 94.52C237.98 59.81 220.95 26.39 193.31 21.57C165.67 16.75 146.36 22.48 130.51 48.56C127.98 52.73 127.93 57.83 125 58.05C122.54 58.23 122.04 52.72 119.49 48.56C104.79 24.62 84.3302 16.74 56.6902 21.57C29.0502 26.39 12.0202 59.81 23.2702 94.52Z" fill="#AA0505"/>
</svg>
