<?xml version="1.0" encoding="UTF-8"?>
<svg id="b" data-name="Слой 2" xmlns="http://www.w3.org/2000/svg" width="400" height="520" viewBox="0 0 400 520">
  <path d="m126.72,58.66c-1.74,3.08-3.08,6.37-3.93,9.92-.07.31-.35.53-.67.53h-5.5c-.43,0-.79-.3-.86-.72-.19-1.07-.41-3.26.16-5.97s1.7-4.08,2.26-4.55c.19-.16.42-.25.67-.25h7.27c.54,0,.86.57.6,1.04Z" fill="currentColor"/>
  <path d="m107.56,69.12h-28.92c-2.99,0-2.57-1.88-.27-3.98s4.37-2.84,6.32-2.84h14.25c1.8,0,3.18-.57,4.33-2.03s2.45-1.92,3.72-1.92,4.44-.04,5.02,0,.08,1.07-1.07,3.98-2.41,6.78-3.37,6.78Z" fill="currentColor"/>
  <path d="m53.42,69.12h13.29c1.61,0,3.6-1.49,4.75-4.48s.08-5.82-3.14-4.52-7.13,4.37-10.04,5.4-7.09,3.6-4.87,3.6Z" fill="currentColor"/>
  <path d="m275.39,57.93c-.37,0-.63.36-.52.72l2.66,8.23c.22.69.87,1.16,1.6,1.16h99.91v241.36s-26.87-14.45-30.65-16.4c-3.78-1.93-13.79-2.25-17.78-3.78-3.99-1.53-16.85-11.03-20.12-13.28-3.27-2.25-2.34-4.08-.61-4.9,1.74-.81,6.94,2.46,15.53,8.48,8.58,6.03,11.43,5.52,19.41,6.12,7.97.62,24.83,12.87,24.83,12.87V74.18h-90.41c-.25,0-.43.21-.39.46.23,1.49,1.08,6.51,2.14,13.34,1.46,9.27,2.26,16.44,2.52,19.72.06.65-.36,1.24-.99,1.42-.74.21-1.52-.25-1.7-1.01-1.03-4.55-4.37-19.21-6.04-27.42-1.99-9.81-7.43-16.85-8.96-25.13s-3.45-20.99-8.34-28.58c-4.91-7.59-11.12-13.42-20.84-16.1-9.74-2.69-21.16,1.3-26.14,4.74-4.98,3.45-17.47-.76-26.12-3.45-8.66-2.68-24.45.54-30.19,4.29-5.75,3.77-8.66,6.9-8.74,11.03-.07,4.14-.19,8.1-.55,10.45-.36,2.34-7.16,11.49-13.07,24.16-4.98,10.62-8.19,29.32-9.09,35.07-.17.99-1.02,1.72-2.04,1.72h-.92c-1.14,0-2.04-.95-1.99-2.1.06-1.35.25-3.35.77-6.03,1.31-6.63,2.73-12.05,3.32-14.22.14-.52-.25-1.02-.79-1.02H11.13v14.62c0,.72.73,1.2,1.38.88,1.74-.86,3.79-1.08,4.95-1.13.52-.03.94-.46.94-.98v-4.1c0-1.65,1.21-3.16,2.85-3.31,1.9-.17,3.48,1.34,3.43,3.2l-.15,7.52s12.26,20.23,17.87,28.91c5.61,8.69,3.68,3.78,2.55-3.88-1.12-7.67-1.53-21.05,8.99-28.51,10.52-7.46,26.36-3.68,45.46,5.52,19.12,9.2,31.57,15.74,42,20.23,10.41,4.5,31.57,10.83,41.07,10.92,9.5.11,11.94-.3,5.31-1.02-6.65-.72-24.83-5.1-29.23-7.56-4.39-2.46-4.8-3.17,2.36-3.57,7.14-.41,96.03,2.76,101.74,3.37,5.72.62-.4,1.53-6.12,3.78-5.72,2.25-16.34,7.56,12.47-.3,28.81-7.86,53.02-28.19,66.3-34.22,13.28-6.03,26.56,1.93,26.47,13.28-.11,11.34-1.13,28.29-19.21,46.58-18.08,18.29-34.84,28.38-42.04,31.98-7.2,3.6-10.28,7.59-11.12,15.32-.84,7.74-4.44,12.18-7.89,14.63s-5.52-1.61-3.37-3.37c2.14-1.77,6.51-6.59,7.96-12.56,1.46-5.99.77-10.27,8.81-15.71,8.05-5.45,18.77-10.88,34.87-25.45,16.1-14.55,27.43-32.63,26.2-47.35-1.23-14.72-14.4-14.72-23.6-9.35s-16.1,13.13-61.65,31.93c-45.57,18.8-105.33,5.1-121.48-2.25-16.14-7.35-50.05-22.67-60.17-28.3-10.11-5.61-26.05-7.76-32.69.81-6.65,8.59-4.5,27.58,1.94,41.79,6.43,14.21,26.76,31.36,41.89,37.39,15.12,6.03,18.59,7.35,19.71,11.85,1.13,4.5,3.78,12.26,7.97,14.3,4.19,2.05,5.01,3.08,5.1,8.18.11,5.1,1.64,13.49,5.42,16.45,3.78,2.95,3.27,5.31,1.02,6.94-1.94,1.42-15.76,14.95-19.5,18.61-.5.48-1.3.4-1.68-.15l-2.91-4.08c-.36-.5-.25-1.17.22-1.54,2.92-2.28,12.63-9.82,15.9-12.41,3.89-3.06,4.7-3.17,1.85-6.44-2.87-3.27-3.89-8.88-3.78-14.3.1-5.41-.21-5.72-1.74-6.43-1.53-.72-7.16-2.15-8.99-7.67-1.85-5.52-1.43-8.37-5.01-11.54-3.57-3.17-23.39-9.3-36.58-19.41-13.19-10.12-26.98-22.84-28.81-26.83-1.83-3.99-19.92-33.71-23.29-39.84-3.37-6.12-5.36-7.65-11.49-4.44-6.14,3.21-5.97,6.59-3.83,9.65,1.94,2.77,12.74,23.1,14.79,26.95.22.43.33.88.33,1.35v194.47c0,11.09.01,25.1,2.41,40.13.9,5.46,2.55,5.43,3.7,4.36s2.76-3.68,6.81-8.36c4.07-4.68,3.92-4.29,8.21-14.48,4.29-10.19,4.52-9.72,4.21-7.81-.3,1.9-1.3,18.45-1.6,19.76-.3,1.3-6.68,7.5-13.19,13.41-1.85,1.68-3.16,2.9-4.04,3.86-.99,1.08-1.37,2.61-.95,4.01,5.3,18.3,17.58,30.92,42.47,49.93,25.94,19.82,69.26,42.09,89.5,51.9,20.22,9.81,26.96,13.68,37.24,24.32,5.67-8.74,20.07-16.4,41.38-25.13,21.29-8.74,52.71-21.61,87.19-62.84,39.47-48.15,54.64-93.99,57.91-106.36.43-1.59.62-3.2.62-4.84V57.93h-111.41Zm-141.97,37c-2.68,1.31-2.95-.06-2.61-3.82.39-4.12,1.2-8.62,5.24-21.28,4.04-12.67,10.07-17.68,12.51-22.58,2.46-4.91,2.97-11.6,3.32-18.14.36-6.54,6.48-9.14,15.63-11.54,9.14-2.4,18.61,1.68,30.14,4.8,11.53,3.12,21.21-2.1,24.94-4.23,3.72-2.15,14.56-2.87,23.09,4.59,8.54,7.46,10.79,13.28,12.05,22.48,1.28,9.19,1.38,12.77,3.99,17.46,2.61,4.7,7.25,20.54,7.94,27.43.69,6.9-.69,7.28-2.3,6.74-1.6-.54-11.41-2.98-16.01-3.6-4.59-.61-41.83-5.28-72.32-3.9-30.49,1.38-42.91,4.29-45.6,5.59Zm133.05,17.14c-9.41-1.13-54.05-3.68-78.97-3.78-24.94-.11-28-.3-19.93-2.15,8.07-1.83,24.62-2.58,28.51-2.41,3.88.17,4.55-1.46-12.08-1.97-16.63-.51-26.23-.41-32.26-.21-6.03.21-6.7-1.28-4.29-1.74,14.33-2.7,42.7-5.52,65.39-4.5,22.67,1.02,42.29,4.4,49.84,6.23,7.57,1.83,10.33,4.59,5.52,3.68-4.8-.92-17.25.19-12.45.7,4.8.52,11.5,2.05,14.84,3.48,3.34,1.43,5.28,3.78-4.11,2.66Zm59.35-6.95c10.59-8.58,18.4-11.52,22.48-8.11,4.08,3.41,4.59,15.06-4.5,27.11-9.09,12.05-1.79.3,0-4.23,1.79-4.55,1.68-11.75.57-12.73-1.13-.97-3.74,1.7-7.92,5.06-4.19,3.37-.57-1.68,2.01-5.25,2.58-3.59,2.73-7.01-.95-5.27-3.67,1.74-8.07,4.23-12.21,6.8-4.14,2.55-2.1-1.27.51-3.38Zm-240.97-1.92c-8.73-1.68-15.63-3.37-20.23,2.91-4.59,6.29-1.68,19.39-.15,24.67,1.53,5.3-.04,4.74-1.3,2.54-5.19-9.16-7.52-28.05-2.76-33.49,4.74-5.45,15.86-4.91,24.44-.23,8.58,4.68,8.73,5.3,0,3.6Zm244.5,196.38c.25.03.57.04.9.06.01.03.03.07.01.1-.08,2.08-.28,5.38-.55,9.5-.08-.04-.14-.1-.22-.15-2.19-1.39-4.04-2.84-5.68-4.36,2.36-2.99,4.47-5.25,5.54-5.14Zm-82.75,103.32c-.92-1.86,3.41-3.23,4.5,1.59,1.09,4.83-6.68,13.67-8.56,11.72-4.44-4.61-6.66-9.94-3.37-12.33,3.3-2.39,6.59.14,6.74,1.52s1.6-.63.69-2.5Zm-.72,44.82c1.74-2.81,2.81-1.28,3.83,0s1.02,2.34-1.94,3.93c-2.97,1.59-3.63-1.12-1.89-3.93Zm3.99-13.18c-2.66,1.08-.43-2.54.81-6.07.72-2.04,2.19-.11,2.91,1.74.72,1.83-1.08,3.27-3.72,4.33Zm-6.26-37.18c-5.59.69-9.65,4.07-9.89,9.2-.22,5.13.77,7.65-1.3,9.81-2.07,2.14-5.43,7.5-1.3,7.2s9.19-1.61,9.34,1.31c.15,2.91-1.99,8.04-6.9,10.95-4.9,2.91-8.43,6.51-8.43,3.37,0-11.79.77-37.24.77-40.6s-.62-1.38,5.67-9.81c6.28-8.43,16.62-17.93,18.54-20.12,1.92-2.18,2.76-1.41,2.69.66-.08,2.07.3,3.99,3.32,5.9,3.03,1.9,3.88,5.28,1.89,12.1-2,6.83-8.81,9.35-14.41,10.04Zm-10.04,56.31c-1.75,7.52-3.82,7.43-5.89,5.75s-.63-8.41,4.14-14.03c3.52-4.14,3.52.77,1.75,8.28Zm80.78-85.52c-.58.58-1.53.52-2.01-.14-2.25-3.05-4.99-6.85-7.85-10.85-.34-.48-.33-1.13.04-1.6,2.19-2.77,4.44-5.56,6.58-8.08.58-.68,1.63-.61,2.11.12,2.4,3.53,5.17,7.41,7.67,10.74h-.01c1.85,2.44-.21,3.43-6.52,9.81Zm-22.2,4.76c-.37-.5-.34-1.2.07-1.67.91-1.08,1.75-2.11,2.5-3.06,1.41-1.81,3.05-3.93,4.81-6.21.51-.68,1.52-.7,2.07-.04,2.55,3.06,5.34,6.51,7.82,9.75.4.52.36,1.25-.1,1.72-2.18,2.29-4.97,5.2-8.05,8.44-.54.57-1.46.55-1.97-.06-2.43-2.84-4.87-5.86-7.14-8.88Zm3.03,15.28c-2.29,2.39-4.62,4.81-6.9,7.2-.61.62-1.61.57-2.15-.12-2.22-2.87-4.44-5.77-6.51-8.44-.43-.55-.39-1.32.08-1.82,2.25-2.41,4.57-4.91,6.79-7.34.61-.65,1.63-.61,2.17.1l6.62,8.59c.43.55.39,1.32-.1,1.83Zm19.49-52.24c-.8-1.93-1.86-3.99-3.71-6.32-1.06-1.34-2.25-2.68-3.43-4.01-.52-.61-.45-1.52.17-2.03,2.37-2.01,4.84-3.93,6.5-5.77.15-.15.32-.36.5-.59,2.17,1.99,5.14,5.06,8.01,7.97.48.5.55,1.27.14,1.82-1.5,2.01-4.41,4.25-7.12,7.67-.29.36-.65.79-1.05,1.26Zm-5.74,5.02c.32.5.26,1.13-.14,1.57-2.17,2.36-4.62,5.01-7.2,7.79-.58.61-1.57.55-2.07-.14-2.14-3.02-4.19-5.94-6.01-8.54-.23-.33-.3-.73-.19-1.12.7-2.66,4.57-6.79,7.59-10.07.61-.66,1.68-.52,2.12.26,1.86,3.34,3.9,6.94,5.9,10.23Zm-11.23-18.03c-3.77,3.75-6.79,6.43-7.43,6.99-1.42,1.27-2.18-.76-.7-2.61,1.59-1.96,4.12-4,6.61-6.08.52-.46,1.34-.32,1.7.29h.01c.26.47.19,1.05-.18,1.41Zm-3.45,30.55c.36.39.79.85,1.27,1.38.5.57.5,1.43-.01,2-2.4,2.57-4.77,5.12-6.98,7.52-.68.73-1.85.59-2.36-.25-2.25-3.77-3.86-7.28-4.37-10.19.04-.3.08-.58.12-.88.57-1.21,1.08-2.32,1.5-3.25.34-.76.69-1.57,1.02-2.43.33-.84,1.34-1.19,2.12-.72,2.54,1.52,5.52,4.51,7.68,6.83Zm-12.08,15.85c.5.65.45,1.54-.08,2.14-2.22,2.54-4.29,4.98-6.18,7.21-.69.81-1.96.79-2.61-.06-.65-.84-1.24-1.6-1.74-2.26-.4-.52-.47-1.21-.15-1.79,1.39-2.63,3.93-7.76,5.14-10.23.43-.85,1.5-.34,1.5-.34l4.11,5.34Zm-9.86,23.8c.58-.68,1.63-.66,2.19.03,2.04,2.55,4.23,5.31,6.44,8.08.44.55.4,1.37-.1,1.88-2.28,2.36-4.36,4.52-6.12,6.37-.61.62-1.63.57-2.15-.14l-5.57-7.37c-.34-.46-.39-1.06-.1-1.56.48-.81,1.05-1.74,1.77-2.76.85-1.24,2.12-2.79,3.64-4.54Zm-3.53-6.25c-1.9,1.96-3.27,2.87-4.1,2.81-1.53-.11.29-3.45,1.45-5.63.19-.37.72-.41.98-.08.51.61,1.08,1.31,1.71,2.1.18.22.17.58-.04.8Zm-1.64-30.29c-1.16,4.14-2.22,11.94-5.3,11.56-3.7-.46-4.83-3.97-1.06-8.8,3.75-4.83,7.5-6.9,6.36-2.76Zm-10.21,83.21c.1-.87,1.17-1.2,1.72-.54l3.64,4.32c.73.86.5,2.17-.47,2.74-.94.57-1.89,1.09-2.81,1.6-3.93,1.25-2.98.08-2.08-8.12Zm4.19-16.38c-.73.63-1.82.55-2.47-.15-.32-.36-.48-.83-.46-1.3.26-4.45,1.08-8.7.97-12.96-.07-2.81,1.43-.34,1.43-.34l6.03,6.92c.59.69.58,1.72-.06,2.39-2,2.1-3.94,4.12-5.45,5.45Zm5.02,7.2c.7-1.79,3.19-3.89,6.01-6.8.46-.48,1.21-.47,1.64.03l6.4,7.36c.4.47.34,1.17-.11,1.59-2.15,1.86-4.33,3.68-6.52,5.39-.46.36-1.12.29-1.52-.14l-5.68-6.29c-.29-.3-.39-.76-.22-1.14Zm12.77-12.87c-.41-.54-.39-1.28.06-1.79,1.79-2.04,3.88-4.36,6.11-6.84.59-.65,1.63-.61,2.17.07,2.65,3.35,5.03,6.34,6.79,8.58.46.55.41,1.35-.08,1.86-2.15,2.21-4.37,4.41-6.65,6.59-.61.58-1.6.5-2.11-.18l-6.28-8.29Zm13.25-14.66c-.43-.54-.4-1.31.07-1.82,2.26-2.5,4.55-4.99,6.72-7.41.59-.66,1.63-.62,2.18.08l6.58,8.56c.41.52.41,1.26-.01,1.77-2.01,2.43-4.22,5.01-6.59,7.65-.59.66-1.64.63-2.18-.07-1.74-2.26-4.11-5.34-6.76-8.77Zm12.27-15.42c3.24-3.75,6.29-7.45,8.92-10.62,2.07,2.98,3.52,5.41,3.72,6.63.34,2.01.37,4.92.3,7.52-1.02,1.64-2.39,3.64-4.07,5.9-1.79-1.82-5.09-5.23-8.88-9.43Zm12.8-13.31c-.21-.22-.48-.55-.81-.95,2.44-2.87,4.26-4.84,5.1-5.24.74-.34,1.24.66,1.61,2.1-.4,2.46-.83,4.77-1.27,6.92-1.89,1.34-1.37.72-4.63-2.83Zm.3-31.4c-.14-.26-.26-.51-.39-.76-.26-.55-.17-1.21.28-1.64.76-.74,1.46-1.38,2.11-1.89,2.61-2.1,4.69-3.02,6.25-3.21.9-.12,1.65.65,1.57,1.54-.44,4.41-.92,8.91-1.45,13.34-.4,3.32-6.07-3.09-8.37-7.38Zm9.03-21.23c-3.26-2.51-5.99-5.92-7.82-8.52-.33-.48-.33-1.13.01-1.61.92-1.3,1.9-2.66,2.88-4,3.16,1.35,6.58,2.29,7.83,4.76-.19,2.57-.4,5.37-.65,8.34-.08,1.12-1.38,1.71-2.26,1.03Zm-10.56-32.62c3.1,1.6,5.09,4.88,8.76,5.75.11.23.12.26.22.5-.83,1.2-2.68,2.62-5.17,5.02-1.05-1.35-2-2.73-2.88-4.17-1.64-2.69-2.44-4.76-2.84-6.44.58-.7,1.23-1.02,1.92-.66Zm-4.59,12.77c-.1-.69-.1-1.57-.03-2.57,1.1.68,2.97,2.72,4.87,4.62-3.71,3.79-9.21,9.49-14.22,14.61-.3-.55-.55-1.09-.76-1.61-.1-.25-.03-.52.14-.73.88-1.08,1.57-2.18,1.93-3.28,1.63-5.1.1-7.46-.41-9.5-.51-2.04,1.63-2.55,3.06-.21,1.43,2.36,5.93,2.55,5.42-1.32Zm39.82-46.37l-6.52,7.6c-.51.59-1.43.59-1.94,0l-6.5-7.6c-.4-.48-.4-1.19,0-1.67l6.54-7.59c.51-.59,1.42-.59,1.93,0l6.5,7.59c.41.48.41,1.19,0,1.67Zm4.77-75.57c2.46,0,4.44,2.44,4.44,5.45s-1.99,5.43-4.44,5.43-4.44-2.44-4.44-5.43,1.99-5.45,4.44-5.45Zm-45.29,19.54l17.74-.84c.37-.01.69-.26.83-.62l5.82-16.25c.29-.81,1.45-.81,1.74,0l5.82,16.25c.14.36.46.61.83.62l17.74.84c.88.04,1.21,1.16.51,1.67l-14.07,10.21c-.32.23-.46.63-.34,1.01l5.12,17.42c.25.86-.72,1.53-1.43,1.01l-14.5-10.54c-.32-.23-.76-.23-1.08,0l-14.5,10.54c-.72.52-1.68-.15-1.43-1.01l5.12-17.42c.11-.37-.03-.77-.34-1.01l-14.07-10.21c-.7-.51-.37-1.63.51-1.67Zm-20.61,26c6.52,1.61,16.18,9.27,18.47,15.17,2.3,5.9.23,5.06-3.21,2.52-3.45-2.52-9.59-4.14-4.37.08,5.21,4.21,8.36,7.2,9.43,9.42,1.06,2.22-.92.84-4.07-.39-3.14-1.21-3.14-.52.23,3.45,3.37,3.99,6.59,6.52,2.76,6.21-3.83-.3-9.65-7.59-14.72-11.49-5.06-3.9-8.19-2.99-11.64-4.9-3.45-1.92.76-1.7,4.21-1.7s2-.22-5.21-3.52c-7.2-3.3-9.42-8.12-9.96-10.04s.54-1.38,3.99,1.53,9.74,2.37,11.72,3.68c2,1.3,2.69.22-.23-2.07-2.91-2.3-7.05-1.92-11.41-9.43-4.37-7.5-2.05-9.61-.69-7.74,3.96,5.48,8.19,7.59,14.7,9.2Zm-16.44-87.94c2.97.57,3.88,3.42,1.32,2.85-3.03-.66-4.29-3.42-1.32-2.85Zm3.31,6.23c3.83,2.34,7.72,7.2,3.02,5.57-4.07-1.42-6.8-3.89-8.22-5.67-1.43-1.79,1.38-2.25,5.2.1Zm-2.91,5.42c4.76,2.08,9.81,5.05,11.39,7.45s2.36,8.12-.46,18.14c-2.81,10.01-6.44,12.62-7.92,16.91-1.49,4.29-2.76,5.81-2.7,3.72.12-5.31,1.78-7.65,2.59-9.03.83-1.38.57-1.85-.91-3.23-1.49-1.38-1.38-3.42.76-2.14,2.15,1.28,3.02.21,3.38-3.32.36-3.52-.98-5.72-2.55-6.84-1.59-1.13.97-2.25,2.95-.72,2,1.53,3.38,0,2.3-2.91-1.08-2.91-2.91-3.57-4.55-3.72-1.63-.17-2.04-2.57.98-3.74,3.01-1.17,3.83-3.67,1.12-3.57-2.7.1-5.68,3.32-6.08.87-.4-2.46-.25-3.89-2.34-5.46-2.1-1.59-2.7-4.5,2.04-2.4Zm-45.1-8.44c8.69.32,6.33,1.54-1.12,4.4-7.46,2.85-10.33,2.25-10.84-1.23-.51-3.48,3.34-3.48,11.96-3.17Zm-19.82,2.81c1.89-2.91,2.66.77,3.53,3.39.86,2.63-.68,2.74-3.53,2.69-2.85-.06-2.47-2.28,0-6.08Zm-25.24-1.68c6.65-.23,12.98.1,16.45,0,3.48-.11,5.31.41,1.94,4.19-3.38,3.78-2.04,3.57-8.59,1.83-6.54-1.74-14.29-5.88-9.81-6.03Zm-40.77,24.98c.48-2.97,3.74-9.71,4.3-15.43.57-5.71,4.1-14.3,5.06-15.6.95-1.3,4.7.88,6.77,2.43s2.03,2.36.08,3.13c-1.96.76-4.87,2.22-6.36,5.9-1.5,3.67-.15,5.09,1.19,3.75,1.34-1.34,4.21-2.99,8.96-4.68,4.74-1.68,10.76.65,12.76,1.64,1.99,1.01,3.14,2.41,1.6,2.39-1.53-.04-6.16.18-11.03,2.14-4.85,1.96-7.65,5.79-9.53,6.74s2.68,1.08,6.25,1.3c3.56.23,7.01.54,6.04-.11-.95-.65-2.25-2.95-1.1-4.1,1.14-1.14,3.45-.77,3.56.99.12,1.77,2.19,4.07,6.63,4.07s5.74-3.14,6.28-3.92c.54-.76,3.83,1.23,5.3,2.65,1.45,1.42.37,1.92-1.5,1.83-1.88-.07-2.79,2.88-6.05,4.66-3.28,1.79,1.99.72,5.71-.21,3.74-.91,7.72-3.78,8.43-6.18.72-2.4,2.05-2.29,2.46,0,.41,2.3,1.53,18.8,2,22.27.46,3.48,1.78,2.1,1.78-1.17s-1.06-22.33-.91-25.64c.15-3.32,3.72-2.46,7.41-2.46s8.07-.36,8.12.87c.04,1.23.04,27.68.1,29.68.06,1.99.92,2.65.97.15.06-2.51.66-16.04.87-17.63.21-1.59,2.72-.97,5.12-.06,2.4.92,2.55-1.83.97-2.45-1.59-.61-2.34-1.72-1.08-3.37,1.28-1.63,5.57-5.01,6.18-3.83.62,1.17,1.85,4.44,6.39,4.44s7.05-1.17,7.46-3.52c.41-2.34,2.4-3.42,2.81-.1.4,3.31-3.74,3.61-1.85,4.03,1.9.41,9.97-1.38,11.96-2.7,2-1.32,2.25-1.59-.46-1.59s-5.72-3.57-11.9-5.37-13.19.62-8.9-1.94c4.3-2.55,14.62-4.39,19.87-3.16,5.27,1.23,5.72,4.14,5.42,1.08-.3-3.08-2.81-5.83-4.85-7.36-2.04-1.53,0-2.25,2.97-2.19,2.97.06,5.97,1.79,5.76,8.52-.21,6.74,1.34,12.67,2.97,18.91,1.64,6.23.51,12.47-4.19,18.29-4.69,5.82-7.25,14.1-6.84,17.97.41,3.89,2.55,6.65,2.34,3.27-.19-3.37,1.43-8.58,4.3-11.23,2.86-2.66,3.57-3.48,3.67,2.95.11,6.44-1.63,12.16-1.63,15.98s1.75,10.56.61,9.79c-1.14-.77-3.37-7.43-3.21-9.2.15-1.75-2.54,3.14-.69,8.81,1.83,5.67-.62,8.51-.39,6.68.23-1.85-2.76-4.76-3.5-7.9-.74-3.13-1.71-1.53-1.41,2.61.32,4.14,2.23,5.75,1.01,8.58-1.23,2.84-1.01.69-2.51-1.75-1.5-2.45-4.47-3.53-3.39-1.85,1.08,1.7,1.23,5.9,0,8.36-1.23,2.45-.23-1.83-3.38-5.13-3.13-3.3-.84,2.91-.99,5.52s-1.53-3.45-4.68-4.52c-3.13-1.08-.84-.3,1.77,5.82,2.61,6.14-.45,9.5-.45,8.04s-.08-6.36-2.54-8.5c-2.44-2.15-4.9-.39-2.59,2.22,2.29,2.61,3.82,8.73,1.6,10.88-2.22,2.14-.54-1.08-2.52-6.21-2-5.13-5.45-4.07-4.44-2.07.99,1.99.69,7.81-.08,10.88-.76,3.06-3.6,5.2-2.52,2.37,1.08-2.84.22-8.21-.39-9.96-.61-1.77-3.21-3.08-2.84-1.92.39,1.14.62,2.52-.22,5.05-.84,2.54-1.16-.15-1.23-2.76-.08-2.59-3.3-7.35-6.74-9.12-3.45-1.75-5.28-5.2-3.6-5.97,1.68-.77,6.21-2.52,8.34-5.13,2.15-2.61.17-1.77-3.6-1.53-3.75.22-17.78.3-21.89.22-4.12-.07-8.37-.37-6.39,1.31,2,1.68,3.6,2.07,6.39,3.52,2.77,1.46.51,3.38-2.01,6.05-2.52,2.69-6.51,5.06-7.35,8.36-.84,3.3-.47,4.52-1.46,4.14-.99-.39-2.07-3.3-.84-5.6,1.23-2.29-.39-3.99-2.37-1.6-2,2.37-2.46,7.5-1.46,12.18s2.22,6.66-.61,4.52c-2.84-2.15-4.07-8.81-2.99-14.48,1.08-5.67.99-6.36-.39-5.67s-3.3,3.28-4.21,8.28c-.92,4.98-1.92,6.58-2.61,2.44s1.61-10.95,3.37-13.79c1.77-2.83-2.91-1.83-4.14-4.59-1.23-2.76-1.92-.77-2.44,2.61-.54,3.37.37,1.68,0,5.67-.39,3.99-.92,9.35-2.23,5.67-1.3-3.68-1.06-12.56,0-16.1,1.08-3.52-2.52-.61-4.59,4.99-2.07,5.59-1.99,7.96-2.91,5.43-.92-2.52,1.23-11.49,2.99-13.87,1.75-2.37-1.46-2.14-5.21,1.92-3.75,4.07-3.21,7.43-3.68,5.52-.45-1.92.15-7.35,3.3-9.87,3.14-2.54,1.77-2.99.46-2.84-1.3.15.54-2.99,1.61-2.46,1.08.54,2.15,1.77,6.9,3.6,4.76,1.85,7.67-.52,11.49.08,3.83.61,12.88-.69,14.87-1.61,2-.91,4.61.08,12.65.32,8.04.22,12.95-2.61,8.28-2.23-4.68.39-18.16.54-13.1-2.22,5.06-2.76,7.05-4.9,8.81-3.75s5.82,4.59,19.92,7.97c14.1,3.37,22.69.25,25.29-3.53,2.59-3.78.19-4.8-3.32-6.07-3.53-1.28-7.1-2.36-11.65-7.21-4.54-4.84-6.58-9.14-9.81-13.43-3.21-4.29-5.46-3.21-4.59-2.1.87,1.13,1.02.98.81,4.3-.21,3.31-5.16,2.4-6.69,2.19-1.53-.21-3.68,3.72-7.76,4.14-4.08.4-6.08-.72-8.28-2.4-2.19-1.68-4.34-1.79-8.22-1.74-3.89.06-3.78-4.25-2-6.69,1.79-2.46,4.29-1.23,3.93-2.21-.34-.97-1.78-1.42-4.18-1.23-2.4.21-6.54,3.08-11.85,12.98-5.32,9.92-8.23,12.88-10.12,12.72-1.89-.15-7.35.98-8.63,3.43-1.27,2.44-3.16,2.65-5.16-1.79-1.99-4.44-1.17-6.12-2.5-4.5-1.34,1.64-4.7,8.03-6.74,14.21s-2.81,1.78-1.32-4.65c1.48-6.44,6.48-11.71,7.35-12.98.87-1.28-.63-8.9-.48-12.18.15-3.3-1.85-5.37-3.68-8.21-1.83-2.83-7.64-8.69-6.52-15.32Zm72.64,126.83c-10.11,3.08-20.84,4.1-26.25,0-5.42-4.08-18.3-15.83-24.62-24.51-5.13-7.05,2.95-.32,11.74,6.63,8.79,6.95,14.21,7.56,19.01,7.97,4.8.4,8.18-.11.77-1.85-7.41-1.72-14.77-8.68-19.57-13.63-4.8-4.95-3.37-5.17-1.23-3.63,2.15,1.53,9.92,6.33,16.36,8.88,6.43,2.55,27.17,3.37,40.55-3.88,13.39-7.25,25.75-23.71,29.11-28.08,3.38-4.39,3.48,1.71,3.27,5.3-.19,3.57.11,6.23-1.12,7.56s-6.84,8.07-13.38,15.93c-6.55,7.88-6.34,10.84-3.08,7.88,3.27-2.97,12.88-13.39,15.64-16.3,2.76-2.91,2.95,1.38,1.42,6.34-1.53,4.96-5.1,10.67-14.4,18.33-9.3,7.67-18.49,13.18-27.89,14.44-9.41,1.27-11.35.58-8.51-.74,2.83-1.34,13.61-6.85,18.01-9.81,4.39-2.97-5.72.1-15.85,3.16Zm-15.93-55.88c1.68-3.67,1.63-2.55,1.27,0-.34,2.57-1.45,4.04-2.15,6.59-.7,2.55-1.27,4.29-2.03,2.81-1.7-3.27,1.23-5.72,2.91-9.41Zm5.46-7.41c1.64-.7,2.97.17,2.1,4.55-.87,4.4-4.14,5.46-4.19,9.45-.04,3.99-.43,4.83-1.02,3.74-1.83-3.43.15-7.72,1.68-10.88,1.54-3.17-.19-6.14,1.43-6.85Zm8.12,5.88c.72,1.08-.92,1.14-1.83,0-2.29-2.84-3.17-5.81-1.28-6.81,1.89-.99,2.7-.03,2.51,1.86-.21,1.89-.11,3.89.61,4.95Zm-7.2,15.28c-1.89.39-1.23-3.35,2.25-3.81,3.48-.44,4.95,2.32-2.25,3.81Zm16.65-2.62c1.13-3.17-.15-6.22,1.08-3.41,1.23,2.8-.3,8.37-3.93,11.43-3.63,3.08-3.74,2.15-1.83-1.93,1.89-4.1.18-13.01-2.76-15.94-1.03-1.02,1.17-2.19,3.16.77,2,2.95,2.87,8.68,2.4,11.13-.45,2.46.77,1.12,1.89-2.05Zm-27.58-44.78c-.76.4-1.74,1.99-6.28,6.33-4.55,4.34-9.3,4.95-7.21,3.17,2.1-1.79,7.59-7.13,10.37-9.74,1.82-1.68,3.89-.18,3.12.23Zm3.93.72c2.72-1.03,2.51,1.02-1.59,5.56-4.1,4.55-6.43,3.23-5.61,2.91.81-.33,3.38-7.03,7.2-8.47Zm-11.19-6.8c-3.16.1-6.28,4.65-6.23,3.42.06-1.23,2.32-5.39,5.32-8.58,1.64-1.75,2.14,1.23,3.67,3.12,1.53,1.89.41,1.94-2.76,2.04Zm-4.03,7.2c2.15-2.08,3.27-1.38,2.63-.36-.63,1.02-1.82,4.04-8.41,7.56-6.59,3.53-9.86,2.51-6.84,1.43,3.01-1.08,8.08-4.23,12.62-8.63Zm51.75-3.57c-1.49-1.16-6.29-4.08-8.59-4.23-2.29-.17-.52-1.35,1.08-3.94.63-1.01.87,0,3.48,2.76s5.52,6.59,4.04,5.42Zm11.23,12.21c3.01,1.08-.26,2.1-6.84-1.43-6.59-3.52-7.78-6.54-8.41-7.56s.48-1.72,2.63.36c4.54,4.4,9.6,7.56,12.62,8.63Zm-20.78-9.99c2.77,2.61,8.28,7.94,10.36,9.74,2.1,1.78-2.65,1.17-7.2-3.17-4.54-4.34-5.52-5.93-6.28-6.33-.77-.41,1.3-1.92,3.12-.23Zm.15,9.42c.81.32-1.52,1.64-5.61-2.91-4.1-4.54-4.3-6.59-1.6-5.56,3.83,1.43,6.39,8.14,7.21,8.47Zm-83.21-1.83c.21-4.14,3.65-10.92,7.1-13.28,1.63-1.12,1.63.66.87,2.25-.77,1.59-3.08,4.8-4.81,8.12-1.74,3.32-3.37,7.05-3.16,2.91Zm3.06-17.93c1.89-1.79,2.46.15,1.02,3.27s-4.59,6.99-4.5,5.31c.11-1.68-.59-4.73,3.48-8.58Zm-4.59-50.24c-1.01,4.68-9.67,9.89-9.35,7.13.39-3.3,4.05-6.21,6.44-7.43,2.37-1.23,3.9-4.36,2.91.3Zm-8.59-2.47c1.54-3.17,4.61-3.27,6.14-4.8,1.53-1.53,2.14-1.16,1.61,1.45-.54,2.61-5.96,5.34-8.21,6.68-.99.58-1.08-.17.46-3.32Zm7.67,11.21c-2.07,3.67-6.59,3.3-6.05,5.05.54,1.77-.61,1.77-3.37,3.92-2.76,2.14-5.06,8.28-4.29,11.57.76,3.3.94.4,4.29-3.08,1.1-1.13,1.6-1.75,1.53.08-.08,1.83-1.31,2.91-2.69,7.97-1.38,5.05,3.23,10.19,4.68,13.94,1.46,3.75.47,4.98-2.29,1.14-2.76-3.83-8.66-13.41-9.5-19.61-.84-6.21,1.68-9.57,4.83-12.41,3.13-2.84-.54-3.3-2.76-3.06-2.22.22-3.68,3.6-3.3,7.59.39,3.99-2,2.29-2.54-4.83-.52-7.13,4.76-8.58,7.21-8.66,2.44-.08,5.67,3.68,6.9,3.6,1.23-.07,3.99-2.99,6.81-5.59,2.84-2.61,2.61-1.31.54,2.37Zm-6.95,96.31c1.02-2.81,3.59-4.55,3.68-.63.1,3.92,1.12,10.7,4.23,15.39,3.1,4.7,4.97,5.21,4.97,3.74s-3.17-8.63-3.64-15.89c-.45-7.25.77-10.11,3.43-11.61,2.65-1.5,3.27-1.88,3.16,3.43-.1,5.32-.1,17.17,12.58,34.65,12.66,17.46,24.83,22.16,33.91,26.45,9.09,4.29,25.85,7.97,39.33,3.57,13.47-4.39,23.69-11.43,30.85-24.2,7.14-12.77,7.35-23.8,6.63-27.49s.3-4.7,1.74-3.68c1.43,1.03,4.4,3.68,3.78,14.72-.61,11.03-3.99,20.74-7.25,27.38-3.27,6.65-6.63,11.24-4.29,9.5,2.36-1.74,8.07-7.86,12.47-16.85,4.39-8.99,4.9-16.45,5.41-20.95.51-4.48-.19-6.94,1.13-6.92s9.5,6.01,11.24,8.47c1.74,2.44,3.78,2.86,3.67,8.68-.1,5.82-1.74,21.67-12.15,36.07-10.43,14.4-26.56,29.53-35.25,38.11-8.68,8.58-38.3,37.09-41.78,39.33-3.48,2.25-4.61.4-13.18-6.44-8.58-6.84-23.09-20.94-27.68-26.96-4.61-6.03-6.95-9.41-3.68-7.77,3.27,1.63-4.19-7.16-12.98-17.27-8.79-10.12-20.63-31.57-21.96-37.09-1.34-5.52.81-8.59,3.57-11.13,1.32-1.23,1.74,0,4.8,8.45,3.06,8.47,14,24.12,19.42,28.94,5.41,4.8,26.87,23.69,36.98,28.7s20.95,2.76,27.49-.81c6.54-3.57,28.6-21.86,34.07-30.04,5.48-8.18.87-5.72-6.48.21-7.36,5.93-21.97,15.02-33.31,17.98-11.34,2.95-4.29,3.57.4,2.55,4.7-1.02-.51,3.16-7.86,5.72-7.35,2.55-16.96-2.05-19.61-4.91-2.66-2.85,4.19-1.43,10.92-2.15,6.74-.7,6.95-2.55,3.99-3.97-2.95-1.43-13.58-6.65-23.49-14.23-9.92-7.6-23.4-22.76-27.07-28.58-3.68-5.82-3.89-8.07-5.93-9.5-4.8-3.78-6.03-7.35-4.77-2.76,1.25,4.59,3.96,11.03,6.92,15.32,2.95,4.29,3.46,11.03-1.43,6.33-4.91-4.69-10.94-20.22-13.59-26.87-2.66-6.63-4.4-22.16-3.38-24.98Zm73.84,169.72c.23,2.44.23,11.79.23,16.61s1.68,4.77,1.83,2.01.46-14.8.77-19.46c.3-4.68,4.29-4.22,4.21,0-.07,3.9-1.86,46.08-2.11,52.08-.03.43-.29.81-.69.98l-4.17,1.72c-.72.3-1.5-.19-1.54-.97-.41-8.51-2.37-48.69-2.37-52.52,0-4.29,3.6-2.91,3.83-.46Zm-2.07-15.02c-.15-2.61.99-3.53,4.05-4.68,3.08-1.14,3.68-1.53,3.77,2.76.07,4.29,0,5.97-4.14,6.9-3.68.81-3.53-2.37-3.68-4.98Zm-22.52,23.63c1.93-.92,3.27-1.64,5.16,2.25,1.89,3.88,5.16,8.99,4.03,11.43-1.12,2.44-5.31-.57-8.07-4.69-3.68-5.52-3.06-8.08-1.12-8.99Zm-2.04-13.58c-2.25,5.01-5.72,1.72-7.06-.83-1.32-2.55-1.61-5.24,3.17-6.84,7.05-2.34,6.12,2.66,3.89,7.67Zm8.58,35.98c3.16-2.52,3.67.58,3.27,9.65-.41,9.06-3.68,3.09-5.01-1.41s-3.05-4.43,1.74-8.25Zm-2.04-30.07c-1.19-1.39-.21-7.46-1.94-12.51-1.74-5.05-6.44-6.18-13.14-7.92s-9.23-4.91-8.83-8.28c.41-3.38-1.02-11.54-2.25-14.51-1.23-2.97-.51-4.29.51-5.31s2.66-4.29,3.17-6.03c.51-1.74,4.29,2.44,9.3,8.98,5.01,6.55,16.96,18.19,18.59,19.72,1.64,1.53,1.43,24.32,1.32,29.53-.1,5.21-3.74-.15-6.73-3.68Zm-21.2,24.88c-.32-5.97.07-6.05-2.76.46-2.84,6.51-5.52,10.5-6.44,9.35-.92-1.14,3.37-7.13,4.59-11.81,1.23-4.66-.22-3.52-4.05,2.69s-10.43,7.05-8.05,4.28c2.39-2.79,10.12-13.78,10.66-20.76.54-6.96-2.39-1.9-7.74,4.83-5.37,6.74-8.12,6.37-5.14,1.08,2.99-5.28,9.82-18.15,11.81-26.43.45-1.9,3.21-1.54,4.74,3.37,1.53,4.91,6.52,14.03,7.97,23.9,1.46,9.89-.45,21.23-1.61,23.14-1.14,1.92-5.43-.3-6.43-1.83-.99-1.53,2.76-6.29,2.46-12.26Zm-8.03-83.52c-1.53,3.68-4.8,7.76-8.48,3.7-3.67-4.07-4.5-5.74-2.97-7.99,1.54-2.25,3.7-6.01,3.89-12.36.08-3.08,4.5,2.76,6.03,6.74,1.53,3.99,3.06,6.23,1.53,9.9Zm-36.07-56.19c1.74,2.87,12.98,24.43,16.85,32.49,3.89,8.07,2.57,9.81.83,10.62s-3.38-8.16-8.48-18.08c-5.1-9.9-13.59-25.85-15.27-28.16-1.68-2.3,1.97-7.17,5.17-9.02,3.7-2.15,4.17,1.53,6.11,5.92,1.94,4.4,12.47,24.43,14.92,30.04,2.44,5.63,3.46,10.22,2.55,13.18-.92,2.97-2.55-1.13-4.1-4.8-1.53-3.68-9.19-18.4-12.14-24.52-2.94-6.14-5.32-11.03-5.23-13.28.11-2.25-1.94-1.13-3.06.81-1.13,1.94.1,1.94,1.83,4.8Zm1.43-50.05c2.04-1.74,5.31-4.7,5.31-2.76s1.13,11.34,2.76,18.18c1.64,6.84,2.32,8.51-1.24,10.52-1.61.91-2.95-1.12-4.37-5.82-1.43-4.7-3.48-5.52-2.76-7.41.72-1.88,2.04-2.19.3-6.08-1.74-3.88-2.04-4.9,0-6.63Zm-65.83-94.47c1.94,2.45,3.31,5.7,6.88,11.52,3.57,5.82,23.9,40.45,26.77,45.36,2.86,4.9,22.07,35.45,24.72,40.15,2.66,4.7,1.94,6.74,0,8.28-1.94,1.53-3.78,3.67-6.33-.72-2.55-4.4-14-22.88-16.76-29.02-2.76-6.12-5.82-7.86-3.57-9.9,2.25-2.04-.3-1.85-2.88-1.13-2.57.72-2.94-.81-1.1-3.06s1.23-1.83-.61-5.42c-1.85-3.57-12.52-23.83-23.1-43.42-15.21-28.19-4.97-13.85-4.01-12.63Zm.44,57.64c1.35-.66,2.1-.46,3.06.51.98.98,3.38,5.06,4.81,8.48,1.42,3.42-2.76,4.7-5.57,6.95-2.81,2.25-1.83-2.3-1.9-4.14-.08-1.85-2.34-6.59-3.26-7.97-.92-1.38.28-2.55,2.86-3.83Zm-5.36-.66c-.66-.66-3.52-5.31-4.23-6.69s.66-2.04,2.76-3.21c4.29-2.4,3.63.19,6.69,5.08,1.43,2.29-.25,2.99-1.83,3.86-1.59.87-2.72,1.63-3.38.97Zm9.57,23.14c2.7-1.34,5.34-.43,4.69.73-.66,1.14-1.77,1.99-1.42,2.72.34.73,2.07.23,3.71-1.88,1.65-2.11,3.19-.39,1.7,2.39-1.5,2.79-3.03,4.08-4.18,3.97-1.16-.11-6.59-1.08-8.3-1.77-1.72-.69.34-4.45,3.81-6.16Zm8.83-11.54c1.06-3.99-1.82-9.31-4.29-14.45-2.05-4.25-19.06-31.93-21.56-35.61-2.51-3.67-1.94-4.5-1.23-4.9.72-.41,5.01-2.87,6.28-3.38,1.28-.51,6.14,7.61,8.9,13.43,2.76,5.83,20.63,37.96,21.81,39.79,1.17,1.85-6.59,8.23-8.94,10.07-2.34,1.83-2.04-.97-.97-4.95ZM15.95,104.99c-.43-.8-.14-1.82.63-2.23l1.41-.77c.73-.4,1.63-.11,2.04.63l32.51,60.37c.43.8.14,1.81-.62,2.23l-1.56.87c-.73.41-1.64.12-2.04-.63L15.95,104.99Zm30.15,98.78c-.98-1.59-10.67-17.42-12.11-19.46-1.43-2.04-.58-4.37,1.79-5.46,1.99-.92,3.37-.66,5.1,2.34,1.74,3.02,9.24,15.43,10.58,18.03,1.32,2.61-4.4,6.14-5.37,4.55Zm1.63,68.66c-.4-2.97,2-7.92,4.25-10.88,2.25-2.97,7.14-6.95,8.37-7.67,1.23-.7.21-1.53-2.76-1.32-2.97.21-3.68.46-4.59,2.19-.92,1.74-2.46,2.1-3.38-.97-.91-3.06-.66-5.88,3.38-5.37,4.03.51,8.68,2,10.77,2.46s4.65-.41,6.5,1.53c1.83,1.94,3.16,3.93.3,3.37-2.87-.55-5.52.57-7.2,2.36-1.7,1.78,2.19-1.17,4.33-1.17s5.57,1.12,6.59,1.68c1.02.57,1.28-1.23-.46-4.65-1.74-3.42-2.7-7.36.36-3.78,3.06,3.57,6.84,9.5,9.81,16.95,2.97,7.46,5.61,13.49,8.28,18.5,2.65,5.01,5.01,6.44,8.07,8.48s6.54-1.43,3.68-4.19c-2.87-2.76-5.72-6.12-7.36-7.65-1.63-1.53.21-1.43,3.17-2.15,2.97-.72,4.7-1.12,3.68-6.12-1.02-5.01-3.89-10.94-6.34-16.36-2.44-5.41-7.24-14.91-8.88-13.38s-3.78,3.38-1.12,5.52c2.65,2.15,5.92,7.25,8.79,14.51,2.85,7.25,3.06,10.52.51,11.64-2.57,1.13-5.83.62-7.76-3.78-1.94-4.39-7.88-18.8-9.41-21.86-1.53-3.06-1.78-4.72-.7-5.99,1.08-1.27,1.72-3.83,0-3.3s-3.14-.73-1.3-3.53c1.83-2.79,4.7-5.82,5.63-6.7.92-.88,1.57-1.14,4.07,2.19,2.48,3.32,12.43,22.18,15.75,28.3,3.32,6.14,5.57,8.69,8.69,12.58,3.12,3.88,4.14,5.25,3.48,2.14-.68-3.12.36-4.03,1.99-5.41,1.64-1.38,4.76,2.23,6.14,7.2,1.38,4.95.3,5.92-4.61,10.26-4.9,4.34-9.39,7.92-9.39,11.39s-1.28,7.25.97,9.3,10.87,9.25,13.59,16.4c2.72,7.16,7.16,23.96,11.6,34.76,4.44,10.81,6.12,12.11,6.36,23.14.23,11.03-2.45,23.38-7.59,31.5-5.13,8.11-8.04,8.58-11.27,6.73-3.21-1.83-4.9-.76,0-4.83,4.91-4.05,6.21-7.27,2.23-5.52-3.99,1.77-6.37,3.53-9.43,2.23-3.06-1.31.23-1.01,4.61-4.22,4.36-3.21,6.36-5.37,3.75-5.37s-11.14,2.07-16.76-4.18c-5.61-6.26-14.15-16.03-16.45-18.22-2.29-2.19-1.89-2.91-.19-3.48,1.68-.57,2.95-1.63,3.37-3.48.41-1.83-.21-1.38-2.4-.04-2.19,1.32-9.75,1.74-13.79,1.99-4.04.26-9.81.1-12-1.48-2.21-1.59-2.3-.77-.83,1.89,1.49,2.65,2.46,3.16,3.53,4.14,1.08.97-.11,2.79-2.1,1.68-6.3-3.52-10.11-10.01-8.79-15.43,1.32-5.41,5.52-5.52,10.73-5.31,5.21.21,16.34-2.25,21.05-3.99,4.69-1.74,2.34-2.65-2.25-1.83-4.61.81-21.35,1.83-26.26,1.83s-6.84-6.33-4.8-9.81,8.07-3.78,18.69-5.21c10.63-1.42,28.6-4.69,22.58-5.31-6.03-.61-29.21-.12-33.5.61-4.29.73-4.08,2.15-5.93.62-1.83-1.53-5.82-10.41,3.38-13.07,9.19-2.66,26.25-3.06,33.91-3.99,7.65-.92,9.3-2.46,9.81-5.52s.51-2.34-6.12,0c-6.65,2.34-19.72-1.32-25.54-6.03-5.83-4.7-8.07-8.28-7.16-3.57.92,4.7,3.48,6.23,2.04,7.05-1.42.81-6.33,3.17-6.54,6.95-.21,3.78-4.5-5.83-4.69-13.19-.21-7.35.7-11.24,6.33-14.51,5.61-3.27,8.99-2.46,14.3-1.12,5.31,1.32,24.85,12.23,26.38,12.99,1.53.77,1.45-.69-3.92-4.74-5.35-4.07-8.96-6.36-9.96-9.96-.99-3.6-6.66-15.25-9.57-20.23-2.91-4.98-7.08-9.12-12.34-8.55-5.25.55-8.47,5.92-6.74,11.03,1.74,5.1,8.74,10.98,10.33,12.15,1.57,1.17-.26.92-3.74,1.23s-3.52.92-5.76-1.08c-2.25-1.99-6.59-8.01-6.8-14.25-.21-6.23.66-9.76-.92-6.74-1.57,3.02-2.5,9.24-.61,13.34,1.89,4.08,4.08,7.45,4.95,9.19.87,1.74-.66,3.12-3.12.62-2.44-2.51-7.5-11.19-7.92-14.15Zm57.88,139.57c3.45-.76.84,4.37-4.3,5.9-5.13,1.53-12.87-.61-18.45-11.27-5.6-10.65-8.33-19.28-6.14-21.23.66-.58.92-.84,2.22,1.46,1.31,2.3,6.14,14.1,11.87,20.3,5.75,6.21,11.35,5.6,14.8,4.83Zm-5.83-9.12c2.15,2.37,3.68,3.3,1.7,3.6-2,.3-4.79-.79-6.85-7.43-.72-2.3,3.02,1.46,5.16,3.83Zm-27.28-127.3c-2.01,1.19-4.99-.19-6.65-3.06-1.67-2.88-1.38-6.16.63-7.35,2.01-1.17,4.99.19,6.66,3.08,1.65,2.87,1.37,6.16-.65,7.34Zm6.5,8.3c.84-.79,2.52-.34,3.75.99,1.24,1.32,1.56,3.05.72,3.82-.83.79-2.51.34-3.74-.99-1.24-1.34-1.56-3.05-.73-3.82Zm289.53,46.92c-4.91,11.85-18.49,42.7-33.21,63.65-14.72,20.95-39.54,49.55-60.38,62.42-20.84,12.87-49.03,24.32-54.96,26.45-5.92,2.15-17.06,9.31-21.03,14.33-3.34-9.06-34.95-22.7-44.75-27.2s-50.37-24.92-74.17-44.34c-23.8-19.41-34.48-33.76-36.42-36.26-1.93-2.51-2.5-3.23,0-6.39,2.51-3.17,5.16-5.67,4.91-3.48-.26,2.19-.57,3.52-.3,4.54.25,1.03,18.95,21.56,37.94,36.12,7.96,6.1,17.61,12.66,27.42,18.84,1.52.87,12.54-4.23,20.25-12.94,7.74-8.74,13.79-23.83,14.78-33.18s-.99-16.01-1.38-17.78c-.39-1.75,0-3.45,4.68,1.85,4.68,5.28,6.74,12.63,2.52,27.2-4.21,14.55-10.26,22.22-18.38,28.81-8.1,6.56-16.23,9.32-15.45,10.37,11.27,6.81,22.29,12.84,30.7,16.67,17.46,7.97,40,17.47,48.73,26.96,9.14-14.37,36.16-14.85,67.73-36.16,31.57-21.29,37.69-31.25,52.11-48.88,14.4-17.61,20.85-31.64,19.02-29.14-.52.66-.97,1.16-1.3,1.45-3.27,2.87-4.61,2.14-4.19-2.04.1-.94.32-2.79.61-5.25.55-1.56,1.21-1.5,3.64.68,2.91,2.63,3.52,2.44,4.39,1.57s1.13-1.34-.81-3.35c-1.94-2.01-5.88-5.19-6.21-7.38.15-1.32.32-2.69.5-4.11.3-.3.73-.37,1.32-.08,1.93.98,5.82,5.52,7.71,6.69,1.89,1.19,3.16-.46,3.67-2.44.51-2-1.32-2.76-4.29-5.06-2.95-2.3-7.27-4.79-7.37-7.89.07-.55.14-1.1.21-1.65.51-1.72,1.99-2.07,3.64-.62,2.1,1.83,8.63,8.33,10.11,8.84,1.49.51,3.21-2.36,1.38-3.89-1.83-1.53-10.62-8.68-12.21-10.62-1.59-1.94-1.81-2.99-1.64-4.45.18-1.46,1.49-1.93,4.7.47s9.35,6.59,10.98,7.71c1.64,1.13,3.27,1.02,3.32-.66.06-1.68-1.43-2.4-4.65-4.85-3.21-2.45-10.77-7.46-12.26-10.32-.5-.95-.76-2-.83-2.95.08-.8.18-1.6.28-2.37.25-.55.63-.84,1.12-.65,1.48.55,8.99,7.05,13.59,9.65,4.61,2.61,6.08,3.37,6.74,1.32s.57-2.61-3.32-5.52c-3.88-2.91-15.94-9.06-16.44-12.21-.51-3.16.36-5.12,3.06-3.27,2.7,1.83,15.38,9.7,17.02,10.67,1.63.97,4.08-.25,3.57-2.14-.51-1.9-3.02-2.77-6.39-4.51-3.38-1.72-16.37-9.57-16.55-11.63.88-1.94,2.25-1.34,4.08-.52,2.32,1.03,13.07,6.5,17.71,9.59.01,0,.01-.01.01-.01,1.59,1.01,5.67,3.5,6.9,4.52s2.76,2.97-2.14,14.81Z" fill="currentColor"/>
  <path d="m235.63,27.82c5.27.42,10.73,3.29,12.87,9.04s.69,13.87,2.61,19.31,2.68,8.35.69,5.67-4.06-7.97-4.83-17.01-6.44-13.26-9.65-14.18-4.21-3.03-1.69-2.84Z" fill="currentColor"/>
  <path d="m159.31,26.44c6.56-.25,15.17,3.6,17.7,6.21s3.22,2.38-1.15,2.91-11.49,4.14-4.75,3.22,16.17,1.61,10.65,1.92-11.11,1.15-13.18,2.61.54,1.3,8.81,2.45c8.28,1.15,7.82,2.3,2.15,2.45s-11.57,2.38-13.33,4.21,2.68,1,9.5,1.3c6.82.31,12.87,2.44,3.37,3.14-9.5.7-15.48,2.99-18.54,4.83s2.84,1.23,11.8.84,13.26.08,2.76,2.53c-10.5,2.45-15.4,6.59-12.72,6.51s13.41.16,16.4,0,3.75.84-6.59,2.91c-10.34,2.07-18.16,6.82-12.87,6.51s16.7-.58,21.45.01.61,1.75-5.67,2.21c-6.28.46-26.43,3.06-32.79,4.6-6.36,1.53-5.59.46-.46-2.76s8.2-6.74,2.07-6.36-5.75.31-1.61-2.38,3.68-3.98.69-3.52-2.68-.54,1.53-3.68,5.29-4.21,2.3-4.14-5.06-.77.23-3.83,11.03-6.82,7.28-6.51-10.8,1.15-5.98-.92c4.83-2.07,8.51-2.84,8.81-6.67s.69-13.03.15-15.55,0-4.98,1.99-5.06Z" fill="currentColor"/>
  <path d="m229.42,165.2c-1.48,1.39,7,3.17,12.21,2.09s-3.58-.66-6.67-1.79-4.67-1.12-5.54-.31Z" fill="currentColor"/>
  <path d="m157.7,200.9c-2.48-6.06-.41-11.34,0-13.49s-.97-3.63-3.83-6.64-6.21-8.73-5.84-12.21,1.95-4.04,2.01-1.43,3.88,8.94,7.41,11.7,4.9,4.9,3.37,8.28-1.69,8.58-1.99,12.41-.66,2.5-1.12,1.38Z" fill="currentColor"/>
  <path d="m17.43,254.08c0-55.97.94-117.09.97-121.02,0-.13-.03-.26-.09-.38l-5.85-11.7c-.4-.8-1.6-.53-1.61.36-.17,15.43-1.46,79.1-1.46,134.35,0,3.68,8.03,5.36,8.03-1.61Z" fill="currentColor"/>
  <path d="m13.36,281.4c-2.32-.13-4.27,1.7-4.3,4.02-.29,28.06-.51,52.24-.54,57.02-.08,16.14,6.48,40.41,14.65,47.97,8.17,7.56,5.45,3.32,2.59-2.4s-8.58-19.21-8.79-43.11c-.06-7.22.04-31.96.22-59.41.01-2.17-1.68-3.97-3.84-4.09h0Z" fill="currentColor"/>
  <path d="m9.19,275.84c0-3.51.11-4.87.11-8.51,0-4.67,8.08-5.59,8.05-2.22-.02,2.84-.01,5.65-.06,8.42-.04,2.3-8.11,6.66-8.11,2.3Z" fill="currentColor"/>
  <path d="m30.13,408.4c-6.99-4.94-9.35-11.98-9.81-9.01s-1.3,12.39,2.15,15.3,6.67,1.84,9.96,1.15.84-5.21-2.3-7.43Z" fill="currentColor"/>
  <path d="m43.46,422.04c-4.87-.33-5.85.54-1.55,4.67s11.74,8.58,10.05,3.29-5.99-7.8-8.51-7.97Z" fill="currentColor"/>
  <path d="m61.16,438.28c-.96.96,1.23,4.6,4.37,7.51s9.04,4.29,6.21.46-9.73-8.81-10.57-7.97Z" fill="currentColor"/>
  <path d="m120.7,356.68c-4.52-4.32-9.19-12.87-9.42-18.93s3.22-5.36,5.29.08c2.07,5.44,5.47,20.12,4.14,18.85Z" fill="currentColor"/>
  <path d="m103.61,359.82c-.09,3-2.3,7.51.69,6.28s2.38-3.14,1.76-5.29-2.41-2.51-2.45-1Z" fill="currentColor"/>
  <path d="m70.79,272.63c-.87.51-2.16-.08-2.89-1.33-.72-1.25-.6-2.67.28-3.18.87-.51,2.16.08,2.89,1.33.72,1.25.6,2.67-.28,3.18Z" fill="currentColor"/>
  <path d="m165.52,334.28c-.9,2.4-1.23,5.12,2.04,8.64s28.71,27.53,34.33,32.94,8.38,3.78,11.54.51,39.33-37.39,46.89-43.83,19-26.18,22.27-31.43c3.27-5.25,6.03-6.07,8.89-11.28s4.64-12.46,1.71-17.06-4.97-6.33-4.67-1.74-1.74,14.92-4.29,21.15c-2.55,6.23-13.08,22.69-21.25,31.67-8.17,8.99-25.64,22.27-35.25,31.05s-16.14,14-17.67,15.43-3.68-.43-6.03-2.16-28.91-26.35-33.51-30.74c-4.6-4.39-4.67-4.07-5.01-3.17Z" fill="currentColor"/>
  <path d="m160.68,286.11c5.79,6.61,21.59,20.38,35.74,26.82,14.15,6.44,30.09,6.59,38.05,4.44s7.82-1.69-1.38,3.83-30.04,5.82-44.44-3.98-20.84-17.62-24.83-23.29c-3.98-5.67-5.56-10.56-3.15-7.82Z" fill="currentColor"/>
  <path d="m193.31,290.45c7.96.78,9.18,1.33,6.58,2.04s-5.15,1.53-7.3,0-1.86-2.3.72-2.04Z" fill="currentColor"/>
  <path d="m388.34,330.05c.2,3-4.19,7.6-5.21,12.51s-1.74,7.87-1.12,10.73,3.27-2.86,4.8-7.76,5.01-10.32,4.7-13.59-3.17-1.88-3.17-1.88Z" fill="currentColor"/>
  <path d="m377.71,361.45c-4.12,2.04-4.9,4.19-2.66,4.5s3.37-.61,4.7-2.96.03-2.56-2.04-1.53Z" fill="currentColor"/>
  <path d="m368.31,377.85c-3.47,5-4.39,7.88-2.55,8.67s4.6-2.28,4.8-6.06-.48-5.15-2.25-2.61Z" fill="currentColor"/>
  <path d="m355.24,398.95c-2.67,3.95-4.6,6.71-2.66,8.72s5.41-3.3,6.33-7.19-1.68-4.48-3.68-1.53Z" fill="currentColor"/>
  <path d="m344.51,416.72c-1.83,2.41-4.9,7.46-5.72,8.58s-.2,5.31,4.5-.72,2.86-10.01,1.23-7.87Z" fill="currentColor"/>
</svg>