<?xml version="1.0" encoding="UTF-8"?>
<svg id="b" data-name="Слой 2" xmlns="http://www.w3.org/2000/svg" width="400" height="520" viewBox="0 0 400 520">
  <path d="m7.4,244.44c0,5.27,0,10.47,0,15.56,1.37,7.62,11.31,3.29,12.02,0,0-4.98,0-10.09,0-15.29-1.6-8.93-12.01-3.69-12.02-.28Z" fill="currentColor"/>
  <path d="m26.53,80.1h-7.11s0,59.52,0,121.18c-.51,4.26-11.03,5.29-11.98-1.32h0c.07-65.43.22-127.9.22-127.9h15.79c.77,0,1.65.5,3.47,4.02,1.82,3.53.28,4.02-.39,4.02Z" fill="currentColor"/>
  <path d="m31.27,72.05h32.17c.42,0,.59.54.24.77-2.23,1.49-7.09,4.83-9.63,7.17-.08.07-.17.11-.28.11h-19.08c-1.1-.17-1.55-1.34-3.03-3.64-1.99-3.09-3.2-4.41-.39-4.41Z" fill="currentColor"/>
  <path d="m358.5,69.69h31.24s0,121.58,0,121.58c-.59,3.41-9,4.26-9-2.21,0,0,0-101.61.42-111.33h-19.24c-1.1-.17-1.55-1.34-3.03-3.64-1.99-3.09-3.2-4.41-.39-4.41Z" fill="currentColor"/>
  <path d="m19.41,335.94c0-1.84,0-14.38,0-33-1.85-3.72-7.77-3.51-11.25-.52-.29.25-.53.56-.75.88,0,5.88.02,11.33.04,16.24.01,4.26,1.74,4.12,3.95,6.32,2.21,2.21-2.65,5.29-3.6,7.5-.96,2.21,1.25,5.22,4.12,6.17,2.87.96.96,1.62-1.91,4.12-.99.86-1.78,1.96-2.31,3.35.2,6.29.67,12.33,1.6,18.26.68,2.3,1.16,2.11,2.25.14,1.69-3.05,8.99-9.88,11.04-13.08,3.31-7.51-3.18-7.81-3.18-16.4Z" fill="currentColor"/>
  <path d="m7.42,213.82c0,5.92-.01,11.82-.01,17.67.95,2.37,3.78,4.45,6.08,4.4,2.61-.06,5.71-1.71,5.93-4.96,0-5.34,0-10.73,0-16.13-.79-9.76-11.47-5.37-12-.98Z" fill="currentColor"/>
  <path d="m11.55,295.36c3.62.9,5.33.03,7.87-4.43,0-4.81,0-9.89,0-15.19-.1-.44-.21-.98-.33-1.64-1.38-7.83-10.81-3.8-11.69.77,0,5.79,0,11.37.01,16.7.69,1.65,1.97,3.25,4.14,3.79Z" fill="currentColor"/>
  <path d="m29.45,110.71v-23.12c0-.24.2-.44.44-.44h14.07c.93,0,1.51,1,1.06,1.81-1.32,2.34-3.47,6.62-4.21,10.82-1.1,6.23-1.5,6.54-3.23,7.33-3.55,1.61-6.26,3.23-7.45,3.98-.29.18-.67-.03-.67-.38Z" fill="currentColor"/>
  <path d="m148.14,59.53c9.65-2.8,17.86-3.64,21-3.69,3.14-.06,4.85-3.03-3.03-3.09-7.88-.06-12.51.88-16.65,3.39s-4.29,4.25-1.32,3.39Z" fill="currentColor"/>
  <path d="m156.83,48.39c2.74,2.54,13.32-1.73,15.3-2.38s4.09-1.79-2.8-1.44c-6.94.36-14.97,1.53-12.5,3.82Z" fill="currentColor"/>
  <path d="m160.97,39.45c2.88,1.68,13.19-1.8,15.12-2.35s3.91-1.37-3.03-1.33-14.7,2.16-12.09,3.68Z" fill="currentColor"/>
  <path d="m168.6,31.42c4.06-2.88,7.55-2.59,9.7-2.65s1.38.83-2.98,1.87-8.13,1.76-6.73.77Z" fill="currentColor"/>
  <path d="m177.2,22.98c3.52-1.69,6.28-2.37,7.61-1.98s-1.32,1.6-3.8,2.37-5.29.33-3.8-.39Z" fill="currentColor"/>
  <path d="m215.31,80.94c9.95-10.04,12.79-14.33,11.17-14.11s-12.79-3.31-15.73-6.03,1.69.88,7.13,1.91,9.34,3.82,9.63-1.91.66-11.08,1.18-13.96.44-2.43.74,5.21c.29,7.64-.37,12.8,2.21,12.5s8.75-2.36,11.83-4.12c3.09-1.76,7.42-3.16.81,1.03-6.62,4.19-8.97,4.48-11.03,5.29s-2.5,2.5-.29,5.29c2.21,2.79,8.97,10.58,10.51,13.01,1.54,2.43-.07.74-3.75-2.5-3.68-3.23-9.28-9.04-10.93-8.82s-5.91,3.82-10.76,6.91c-4.85,3.09-4.33,1.92-2.72.29Z" fill="currentColor"/>
  <path d="m206.12,141.22c-4.56-4.56-9.92-5.59-15.58-5.51-5.66.07-13.69,3.86-17.94,2.35-2.28-.81-1.54,1.76,1.84,3.09,3.38,1.32,2.57,4.7,6.98,6.54,4.41,1.84,6.25.74,5.07.15s-2.79-2.94-2.65-4.78c.15-1.84,2.72-1.98,3.01-.59.29,1.4,1.69,5.29,6.1,5.85,4.41.56,6.39-2.47,6.84-4.75.44-2.28,3.23-1.03,4.48.66,1.25,1.69,1.18,2.06-.66,2.87s-1.47,1.25-.22,1.21c1.25-.04,3.82-1.21,5.37-.19,1.54,1.03,1.91-2.35-2.65-6.91Zm-11.75,2.91c-1.08,0-1.95-.71-1.95-1.58s.87-1.58,1.95-1.58,1.95.71,1.95,1.58-.87,1.58-1.95,1.58Z" fill="currentColor"/>
  <path d="m234.64,143.13c-1.59-1.25-3.82,2.57-4.19,12.94s1.54,16.47,3.53,20.07,1.1,6.1-2.06,6.98c-3.16.88-7.35,4.34-5,4.92s7.72.29,9.78-2.06,3.45-6.03,1.03-10.22c-2.43-4.19-3.96-10.45-3.45-17.86.66-9.63,1.76-13.67.37-14.77Z" fill="currentColor"/>
  <path d="m214.5,183.34c2.92-2.27,6.47-2.06,8.16-.66s2.79,1.32-1.69,1.84-7.37-.48-6.47-1.18Z" fill="currentColor"/>
  <path d="m212.22,182.01c-3-2.65-.07-4.78,1.18-5.95s1.54-1.98-2.13,0c-3.68,1.98-3.56,5.42-1.52,6.86s3.22-.25,2.48-.91Z" fill="currentColor"/>
  <path d="m240.52,205.31c-1.91.15-5.29-3.38-6.76-5.59-1.47-2.21-4.85-2.65-7.52-1.54s-5.19.07-7.69-1.25c-2.5-1.32-7.79-.22-12.06,2.35-4.26,2.57-8.52,1.97-9.19.96-1.1-1.69-1.47.51-3.16,2.43-1.69,1.91,2.28,1.03,4.78,1.25,2.5.22,3.16,1.69,5.73,4.34,2.57,2.65,5.73,5.95,16.02,7.06,10.29,1.1,13.67-3.6,14.92-5.51s2.13-2.13,4.26-2.72c2.13-.59,2.57-1.91.66-1.76Zm-7.57,2.87c-1.62,3.16-6.33,4.93-13.72,3.9-7.38-1.03-15.24-5.88-10.91-6.98,6.1-1.55,8.38-.88,11.24.22,2.87,1.1,6.32.37,9.11-.22,2.79-.59,5.88-.07,4.26,3.09Z" fill="currentColor"/>
  <path d="m213.84,218.84c5.78-2.2,10.09-1.54,12.4,0s-.05,1.4-3.14,1.1c-3.09-.29-6.4,0-8.09.19s-3.2-.52-1.18-1.29Z" fill="currentColor"/>
  <path d="m239.05,298.59c6.35-10.72,11.03-17.64,10.44-12.94-.59,4.7-7.19,16.02-16.09,26.17-8.9,10.14-15.07,15.44-9.19,7.5s13.88-19.1,14.85-20.73Z" fill="currentColor"/>
  <path d="m53.3,213.55c-2.63,1.02-4.96.96-4.32,3.16s2.75,9.41,2.47,14.33c-.28,4.92-1.24,6.47,2.58,5.37,3.82-1.1,9.26-2.5,8.53-6.1s-1.91-8.29-2.94-7.9-.66,1.94-.37,3.63-.96,2.28-1.76-2.5c-.81-4.78-1.91-10.88-4.19-10Z" fill="currentColor"/>
  <path d="m47.97,252.27c2.61-2.29,4.19-2.48,5.73-1.6s3.2,2.09.49,2.09-3.25,0-5.35.5-1.53-.42-.88-.99Z" fill="currentColor"/>
  <path d="m71.68,298.01c-3.89.51-1.25,4.92,1.84,5.51s3.82-.78,1.98-3.37-2.91-2.27-3.82-2.15Z" fill="currentColor"/>
  <path d="m375.11,312.08c-2.48-1.93-10.97-10.97-19.96-15.55-8.99-4.58-19.02-9.26-23.26-12.4-4.25-3.14,4.96-2.48,18.25,2.92s24.24,14.85,24.24,14.85V85.13s-46.75-.96-56.45,2.06c-9.7,3.01-29.04,3.97-29.04,3.97,0,0-4.04-14.63-6.76-23.38-2.72-8.75-7.94-19.77-14.92-37.41-6.98-17.64-10-20.21-13.67-23.08s-11.47-3.23-16.25-.51c-4.78,2.72-16.54,4.78-19.48,2.65-2.94-2.13-10.07-8.38-25.36-8.67-15.29-.29-29.84,9.7-45.13,29.99-12.86,17.07-21.77,35.29-24.28,40.63-.42.9-1.4,1.4-2.38,1.2-7.55-1.5-39.11-6.62-61.11,7.85-13.75,9.05-14.84,24.61-14.19,29.11.96,6.62-1.98,4.41-3.45,3.23-1.47-1.18-3.68-1.47-9.7,2.79-6.03,4.26-7.94,8.97-6.76,13.08,1.18,4.12,4.34,12.35,4.34,12.35,0,0,0,199.42,0,202.51,0,3.09-3.75,9.26-4.41,13.89-.03.23-.09.43-.14.62,0,0,0,.02,0,.03.08,2.27-3.61,4.72-7.21,7.88-3.58,3.14-7.3,6.88-5.75,12.7,1.64,5.6,3.81,11.21,6.67,16.95,3.03,2.22,4.45,1.73,6.55-.69,2.09-2.43,2.98-4.08,3.09-10.03.11-5.95,1.54-8.38,2.32-4.74.77,3.64.77,7.28,1.65,12.57.88,5.29,2.32,2.21,5.07,7.39,2.76,5.18,11.91,13.23,19.74,14.33,7.83,1.1,17.75-2.09,20.62-7.06s3.64-2.21,3.31.33c-.33,2.54,4.85-.11,7.83-2.87,2.98-2.76-3.64-1.1-5.84-7.72-2.21-6.62,3.31-16.43,8.71-19.19,5.4-2.76,5.62-5.62,7.23-10.36,1.61-4.74,2.69-4.74,4.51-5.68,1.82-.94.02-2.26,2-6.74s-.22-3.68-2.23-3.01c-2.01.66-3.06-4.92-.93-6.91,2.13-1.98.44-2.5-3.35-4.04-3.8-1.54-12.52-10.44-14.95-12.79-2.43-2.35-.05-5.23,4.04-7.28,1.4-.7,3.57-1.29,6.54,0,2.98,1.29,11.58,8.64,16.32,14.48,4.74,5.84,5.07,15.44,3.32,25.25-1.75,9.81-3.65,23.71-7.98,32.75-4.33,9.04-14.08,23.93-19.04,27.44s-1.98-3.63.77-8.15c2.76-4.52.55-3.42-7.39,2.21-7.94,5.62-16.87,8.05-27.34,3.75-10.47-4.3-16.1-14.89-19.63-17.86-3.51-2.96-9.59,4.07-7.76,7.11,1.4,2.15,2.89,4.32,4.49,6.53,17.94,24.7,57.92,44.99,103.79,63.51s59.1,33.23,65.27,41.16c15.88-25.29,94.97-58.81,127.61-90.27,32.64-31.46,44.27-60.68,46.09-64.26,1.82-3.58-1.1-4.41-3.53-7.06-2.43-2.65-.88-4.41.5-4.8s5.68,1.27,6.67,1.27,1.38-9.76,1.54-11.85c.17-2.09-4.02-4.91-5.46-6.23-1.43-1.32-2.59-1.43-3.58,0s-2.7,2.15-3.58,1.21c-.88-.94-1.65-4.08,1.6-6.95,3.25-2.87,4.91-3.36,7.66-.94,2.76,2.43,5.57.88,5.57-.66v-10.31c0-1.6-3.14-4.41-5.62-6.34Zm-299.91,123.82c-1.69,1.47-6.25-1.85-10.66-5.78-4.41-3.93-4.63-5.81-2.79-5.76,6.03.17,11.1,3.97,13.82,6.03,2.72,2.06,1.32,4.04-.37,5.51Zm35.83,20.07c-5.07-2.54-21.61-11.69-23.82-12.57-2.21-.88-.76-1.86,0-2.54,4.99-4.41,15.22-20.4,17.64-26.02,2.43-5.62,4.19-2.21,3.42,4.96-.77,7.17-4.63,19.3-6.51,23.6-1.87,4.3,1.1,1.98,4.3-2.87,3.2-4.85,6.51-16.65,7.5-13.56.99,3.09,1.1,23.49,1.43,27.23.33,3.75,1.1,4.3-3.97,1.76Zm243.71-148.26c1.76-1.98,2.94-2.94,5-1.69s3.01,1.76.96,5.22c-2.06,3.45-4.63,5.15-5.95,4.04-1.32-1.1-2.17-2.13-2.59-2.94-.5-.95.83-2.65,2.59-4.63Zm-8.75-8.6c2.5-.29,6.03.74,4.92,3.01-1.1,2.28-4.19,3.75-6.25,1.69-1.65-1.65-1.18-4.41,1.32-4.7Zm12.34-38.29l-6.47,7.54c-.51.59-1.42.59-1.93,0l-6.45-7.54c-.4-.48-.4-1.18,0-1.66l6.49-7.53c.51-.59,1.41-.59,1.92,0l6.45,7.53c.41.48.41,1.18,0,1.66Zm6.67-55.42l-13.96,10.13c-.31.23-.45.63-.34,1l5.08,17.29c.25.85-.71,1.52-1.42,1l-14.38-10.46c-.31-.23-.75-.23-1.07,0l-14.38,10.46c-.71.52-1.67-.15-1.42-1l5.08-17.29c.11-.37-.03-.77-.34-1l-13.96-10.13c-.7-.51-.37-1.61.51-1.66l17.6-.83c.37-.01.68-.26.82-.62l5.78-16.12c.29-.81,1.44-.81,1.72,0l5.78,16.12c.14.36.45.6.82.62l17.6.83c.88.04,1.2,1.15.51,1.66Zm-44.15,184.27c.57-3.74,5.37-1.25,6.47.15,1.1,1.4-.51,6.17-2.35,10.36-1.84,4.19-2.21,2.35-2.87-1.91-.66-4.26-1.54-6.69-1.25-8.6Zm-1.03-15.44c.88-1.91,4.63-2.57,4.78,0,.15,2.57,0,6.62-2.21,5.81s-3.4-4.01-2.57-5.81Zm-14.38-3.95c-.55.4-.8,1.08-.6,1.72l8.94,29.68c.43,1.46-1.25,2.61-2.51,1.72l-25.33-17.96c-.55-.4-1.33-.4-1.88,0l-25.33,17.96c-1.25.89-2.94-.26-2.51-1.72l8.78-29.14c1.94-2.87,2.55-2.06,8.21-4.48,5.66-2.43,8.45-3.16,9.85-2.84,1.4.32.59,4.17-1.47,7.99-2.06,3.82-5.81,7.43-14.88,16.47-9.07,9.04-7.1,9.48-5.78,8.31,1.32-1.18,5.88-4.93,13.75-10.95,7.87-6.03,8.67-7.13,10.41-6.62s16.06,11.83,20.98,15.07c4.92,3.23,4.48,3.23-.22-3.23-4.7-6.47-13.67-17.05-15.66-20.07-1.98-3.01-3.9-7.2-1.69-6.54,2.21.66,11.54,3.68,14.63,3.82,3.09.15-3.68-2.35-5.51-3.8s-1.03-1.42,7.72-4.8c8.75-3.38,19.48-8.97,16.76-8.09-2.72.88-20.51,7.5-28.3,8.89-7.79,1.4-5.66.59-3.45-1.84,2.21-2.43,8.01-9.26,11.47-10.59.39-.15.62-.29.73-.42l26.59,1.23c1.54.07,2.12,1.97.89,2.84l-24.58,17.39Zm-37.81,53.57c-1.54.8-2.57-.45-4.7-2.06-2.13-1.62-5.37-5.07-5.81-6.25-.44-1.18.37-2.94,3.82-4.56,3.45-1.62,3.16-1.84,7.06,0,3.9,1.84,8.22,6.69,5.95,8.48-1.99,1.57-4.78,3.59-6.32,4.39Zm-3.93,19.04c-.56.35-1.29.28-1.78-.18l-5.98-5.63c-.56-.52-.63-1.39-.14-1.98,1.81-2.17,4.69-4.41,6.25-5.56.62-.45,1.47-.35,1.97.22,1.77,2.05,4.76,5.68,5.6,6.42,2.2,1.93-3.66,5.29-5.91,6.7Zm7.46-35.59c-.81-1.18,5.07-5.81,6.32-5.29s3.23,4.19,5.29,5.15c2.06.96,4.48.79,2.65,2.53-1.84,1.74-5.66,5.19-7.5,4.6-2.55-.81-5.95-5.81-6.76-6.98Zm17.94-5.33c3.6-.11,7.2,2.54-1.32,3.35-3.2.3-2.28-3.24,1.32-3.35ZM111.26,254.97c.66,8.82-2.54,11.8-2.54,9.28s-2.09-8.5-6.28-13.69c-4.19-5.18-6.4-20.29-3.86-30.65,2.54-10.36,17.2-22.38,19.19-25.25,1.98-2.87-2.32-2.87-9.15,2.56-6.84,5.43-11.47,12.21-13.34,19.38-1.87,7.17-5.4,5.4-4.85-1.98.55-7.39,5.18-15.55,15.85-23.93,10.67-8.38,26.17-19.45,32.66-27.01,3.51-4.1,3.53-5.73,2.21,2.98-1.32,8.71-5.07,15.44-10.47,20.35-5.4,4.92-6.62,4.57-4.96,5.56s7.61-1.54,15-10.7c7.39-9.15,9.26-20.51,10.03-34.27.77-13.76,4.41-22.3,9.59-28.91,5.18-6.62,13.12-11.03,13.89-9.48.77,1.54-1.43,2.76-7.83,13.01-6.4,10.25-6.73,19.19-9.37,31.2-2.65,12.02-8.05,27.45-13.34,34.72-5.29,7.26-17.97,15.34-22.6,18.1-4.63,2.76-12.35,7.72-15.66,18.52-3.31,10.81-.33,20.95,1.21,23.71,1.54,2.76.11-2.54.55-8.27.44-5.73,4.74-12.57,5.73-15.77.99-3.2,2.98-1.43.11,5.95-2.87,7.39-2.43,15.77-1.76,24.59Zm-.66-110.84c-2.65,1.19-1.98.14,2.43-3.94,4.41-4.08,5.26-8.08,6.28-13.01.75-3.62,4.08.22,3.42,3.64-.66,3.42,3.53-.99,9.81-9.59,6.28-8.6,5.07-6.51,3.86-3.42-1.21,3.09-1.98,7.39-12.02,19.52-10.03,12.13-20.73,15-17.53,12.46,3.2-2.54,6.4-6.84,3.75-5.65Zm11.23,4c9.79-7.5,17.19-18.78,22.84-28.34,3.65-6.17,3.53-2.54,2.32.55-1.21,3.09-2.98,9.7-9.61,20.95-6.63,11.25-16.41,20.84-28.87,27.23-12.46,6.4-16.76,11.69-21.72,17.04-4.96,5.35-6.17,2.25,0-8.39,6.17-10.65,25.25-21.55,35.04-29.04Zm-31.29,43.66c4.63-6.62,12.57-15.11,22.16-20.18,9.59-5.07,22.41-18.97,28.34-26.68,3.14-4.08,1.21,3.31-3.2,10.81-4.41,7.5-14,16.76-24.92,23.27-10.92,6.51-16.43,11.03-20.73,15.33-4.3,4.3-6.28,4.08-1.65-2.54Zm156.46-53.29c5.37-2.06,10.22-5.37,14.85-5.29,4.63.07,8.6,1.84,8.38,5.66-.22,3.82-1.32,7.87-5.44,6.1-4.12-1.76-10.51-5.22-18.38-2.94-7.87,2.28-8.09,5.37-8.16,6.54-.07,1.18.81.07,2.21-.66,1.4-.74,2.35-.07,4.04,2.13,1.69,2.21,8.31,3.09,9.7.29,1.4-2.79,1.98-4.04,3.9-3.53,1.91.51,3.09,1.91,1.03,3.68-2.06,1.76-2.28,1.84.74,1.1,3.01-.74,4.34-2.94,5.07-3.97.74-1.03,1.54.44,3.01-.59,1.47-1.03,1.25,3.53.88,14.41-.37,10.88-1.4,13.97-7.28,26.46-5.88,12.5-13.38,34.25-29.26,47.63-15.88,13.38-35.87,0-52.48-13.53s-22.2-25.29-23.82-35.72c-1.62-10.44,4.48-15.8,4.78-11.98.29,3.82.44,10.44.44,12.79s1.54.81,1.69-5.07c.15-5.88.29-11.47,2.72-6.62,2.43,4.85,1.03,13.53,2.87,10.51s1.98-9.04-.74-13.97-4.85-11.03-3.38-18.67c1.47-7.64,3.16-14.19,3.75-17.72s5.81-9.04,16.39-8.31c10.58.74,20.88,8.31,25.65,9.26,4.78.96,7.72-1.54,3.31-5.15-4.41-3.6-11.39-7.87-23.08-8.6s-19.33,2.87-16.02-.59c3.31-3.45,7.42-9.11,9.34-8.89.53.06,1.2.08,1.93.33,11.52,4.01,31.81,9.46,48.46,9.26,18.08-.22,33.96-1.54,33.96-1.54,0,0,1.21,4.67,1.51,7.31.29,2.65-.37,4.26-2.43,1.76-2.06-2.5-8.97-2.28-16.98-.07-8.01,2.21-13.45,5.66-13.67,8.53-.22,2.87,5.15,1.69,10.51-.37Zm5.07,8.93c0,.91-.95,1.66-2.12,1.66s-2.13-.74-2.13-1.66.95-1.65,2.13-1.65,2.12.73,2.12,1.65Zm-77.11,92.99c-7.79-5.78-12.59-14.74-14.97-19.59-2.38-4.85-.43-5.46.56-4.41,7.17,7.53,24.64,27.34,43.04,29.99,18.41,2.65,25.91-.88,26.49.88.59,1.76-7.2,5.88-14.11,6.17-6.91.29-10.29-1.91-5.59.59,4.7,2.5,13.12,2.5,16.78,0,3.66-2.5,6.16-3.45,5.13,1.87-1.03,5.33-10.14,14.3-25.87,13.12-15.73-1.18-32.34-14.7-40.58-26.17-8.23-11.47-6.32-13.82-3.09-10.29,3.23,3.53,12.64,11.47,17.35,13.53,4.7,2.06,2.65.08-5.15-5.69Zm-55.42,27.78c-3.64,3.97-6.4,4.85-4.85,1.54,1.54-3.31,2.65-12.9,2.32-23.93-.33-11.03,3.8-18.42,7.39-24.04,1.81-2.84,4.06-5.18,4.08-1.76,0,1.33-.33,3.09-2.43,7.28-2.09,4.19.33,6.51,1.54,4.3,1.21-2.21,3.53-7.39,4.79-11.25,1.26-3.86,2.49-9.26,3.04-4.96.55,4.3-.11,10.47-1.87,14.89s-1.1,5.4,2.21.11c3.31-5.29,6.4-15.88,6.84-20.18.44-4.3,4.08,3.97,0,17.86-4.08,13.89-10.7,14.44-16.32,21.5-5.62,7.06-3.09,14.66-6.73,18.63Zm-1.32,37.49c-3.29.35-4.7-7.1-5-13.49-.29-6.39,1.54-12.06,2.5-6.47s3.09,15.36,4.34,16.69c1.25,1.32-.15,3.09-1.84,3.27Zm9.26-33.26c3.38,2.94,6.76,8.67,6.17.74-.59-7.94,0-14.85,1.76-16.32,1.76-1.47,2.35,1.18,2.5,9.7.15,8.53,3.23,31.61,19.85,54.1,16.61,22.49,27.49,33.08,30.73,35.58,3.23,2.5,4.7,1.03-1.03-4.85-5.73-5.88-23.67-30.61-30.28-44.12-6.62-13.51-9.56-19.68-5.29-15.71,4.26,3.97,15.58,22.2,33.67,28.37,18.08,6.17,22.05,4.26,15.14,2.21-6.91-2.06-17.05-7.2-26.31-16.17-9.26-8.97-13.82-18.52-9.85-16.32s17.94,15.55,34.25,17.63c16.32,2.07,29.55-4.84,35.28-9.69,5.73-4.85,7.5-7.35.74-3.97-6.76,3.38-16.02,10.29-33.81,6.32-17.79-3.97-24.99-9.7-38.66-22.79-13.67-13.08-16.97-18.08-19.73-22.93-2.76-4.85-1-7.2.91-11.03,1.91-3.82,2.65-2.79,3.68,1.76,1.03,4.56,10.14,26.17,33.08,36.17,22.93,10,37.34,6.62,43.96,5.29,6.62-1.32,8.09-2.65.15-2.5s-23.82-.29-39.11-8.23-22.05-17.49-25.58-23.23c-3.53-5.73-.42-6.89,1.91-3.97,6.24,7.82,18.67,19.11,39.69,24.55,21.02,5.44,36.68-2.5,40.47-11.76,3.79-9.26,2.61-13.82,1.73-16.02-.88-2.21,3.82-2.65,7.35,7.79,3.53,10.44-2.79,20.02-6.76,21.77-3.97,1.75,3.83,2.05,7.8-3.84,3.97-5.88,5.58-8.53,9.26-4.41s-.29,24.55-9.11,36.46c-8.82,11.91-32.93,43.37-42.05,53.66-9.11,10.29-14.41,15-16.32,13.67-1.91-1.32-36.9-33.96-46.31-54.1-9.41-20.14-13.85-31.75-17.95-37.93-4.1-6.17-5.28-8.82-1.9-5.88Zm135.69,35.65c-.59,5.22-8.6,33.74-10.36,34.33-4.08,1.36-8.16.22-7.79-1.84.37-2.06,7.64-22.86,11.61-29.04,3.97-6.17,7.13-8.67,6.54-3.45Zm-22.26,41.97l30.99-1.43c.65-.02,1.2-.45,1.45-1.06l10.17-27.68c.51-1.39,2.53-1.39,3.04,0l10.17,27.68c.09.22.22.4.37.56-.23.1-.35.23-.33.39.16,1.27-6.98,9.26-8.67,11.03-1.69,1.76-1.1-.22-1.76-16.91-.66-16.69-1.18-17.72-1.15-13.81.03,3.91-1.13,23.88-1.13,26.01s-4.48-1.91-7.79-3.97c-3.31-2.06,3.45,5.95,6.69,9.34,3.23,3.38.66,2.65-4.78,1.98-5.44-.66-18.38-6.03-26.46-8.23-8.09-2.21-2.57.59,4.19,2.65s20.95,7.42,18.82,8.62-9.7,4.54-12.23,3.57h0s-22.47-15.89-22.47-15.89c-1.23-.87-.65-2.77.89-2.84Zm97.02,21.39c-1.18-1.47-5.81-4.04-7.94-5.51-2.13-1.47.74-1.91,4.7-2.21s7.57-2.5,9.11-6.62c1.54-4.12-3.53,1.54-6.25,2.79-2.72,1.25-6.1.81-4.92-1.25,1.18-2.06,4.48-6.17,6.91-11.1,2.43-4.93.07-4.26-2.72-4.55-2.79-.29-21.54,0-25.43,0-3.9,0-5.29.07-7.42-1.99-2.13-2.06-7.5-15.07-10.22-20.07-2.72-5-4.7-10.36-8.72-9.63-4.01.74-9.22,11.91-12.38,18.52-3.16,6.62-6.74,5.79-5.73-1.1.34-2.35,2.19-12.96,2.96-17.59.77-4.63,1.16-6.56,2.87-5.46,1.71,1.1,3.14,5.4,2.92,8.49s1.98.72,2.04-5.35c.05-6.06-3.64-13.29-6.01-17.97-2.37-4.69-.55-5.9,1.98-2.76,2.54,3.14,8.93,10.59,11.91,14.44,2.98,3.86,6.4,6.73,4.96,2.7-1.43-4.02-4.96-10.48-7.11-14.28-2.15-3.8-.61-5.46,1.59-2.88,2.2,2.58,10.87,12.75,13.9,16.66,3.03,3.91,4.91,5.24,3.53,1.54-1.38-3.69-5.29-11.96-7.5-15.82-2.21-3.86,3.64-2.65,7.72.88,4.08,3.53,20.47,14.74,30.17,29.88s18.38,33.81,18.96,36.02c.59,2.21.88,3.16-3.01,7.06-3.9,3.9-9.7,8.6-10.88,7.13Zm.22,11.83c-2.43,4.26-7.79,2.87-9.04-.44s-.61-6.41,1.61-8.82c1.04-1.13,3.39-1.03,4.79,0s5.07,5,2.65,9.26Zm-40.43-102.28c-11.03-2.76-15.55-9.26-19.3-11.84-3.75-2.58-4.3-3.82-.77-3.82,3.53,0,5.84-.22-1.41-2.98-7.26-2.76-12.92-5.62-18.72-16.32-5.8-10.7-2.69-19.19-2.8-22.93-.11-3.75,1.43-5.73,2.32,1.87.88,7.61,1.21,11.47,5.45,20.4,4.23,8.93,9.77,10.81,8.34,9.15-1.43-1.65-4.19-6.4-7.06-17.53-2.87-11.14,1.65-28.01,2.21-33.41.55-5.4,1.98-1.98,2.87,3.31.88,5.29-1.99,11.73-.33,19.63,1.43,6.84,2.43,11.14,8.38,21.72,5.95,10.58,14.55,13.34,22.27,14.66,7.72,1.32,15,5.18,17.53,8.16,2.54,2.98.66,2.98-4.63,2.65-5.29-.33-12.57-1.1-17.09-3.31-4.52-2.21-1.54,1.87,7.72,4.74,9.26,2.87,14.11,1.54,17.64,3.53,3.53,1.98,4.52,5.29.88,3.64-3.64-1.65-12.46,1.43-23.49-1.32Zm-13.23-44.14c1.03,3.68.88,1.91,2.5-3.23s10.14-18.96,8.97-32.34c-1.18-13.38-8.38-19.46-10.73-26.42-2.35-6.96-3.38-14.82-3.75-18.28-.37-3.45-.66-4.19-1.4-.51-.74,3.68-.22,10.66-1.4,7.13-1.18-3.53-1.28-6.48-1.25-8.67.13-10.88,3.74-14.7,3.05-21.9-.69-7.2,3.28-14.11,2.98-11.61-.29,2.5,3.53,12.3,4.7,23.13,1.18,10.83-1.18,22.26,8.97,37.5,10.14,15.24,5.44,32.14-.44,40.67-5.88,8.53-8.67,23.96-5.29,26.9,3.38,2.94,17.94,7.94,20.88,13.82,2.94,5.88.74,1.47-7.5-.88-8.23-2.35-21.17-4.7-24.4-15.58-3.23-10.88-.15-20.91,2.21-29.12,2.35-8.22,3.97-20.12-1.32-26.74-5.29-6.62-6.91-12.64-7.2-20.43-.29-7.79.44-8.23,3.23-1.62,2.79,6.62,10.14,15.29,13.23,23.67,3.09,8.38,1.47,21.87-1.91,27.77-3.38,5.9-5.15,13.1-4.12,16.78Zm-9.26-30.06c1.87-7.06.44-11.25,2.32-9.92,1.87,1.32,2.09,9.7.22,14.33-1.87,4.63-1.55,14.11-1.55,16.32,0,2.21-.92,2.11-1.32.44-2.42-10.17-1.54-14.11.33-21.17Zm56.8-42.02l6.49-7.53c.51-.59,1.41-.59,1.92,0l6.45,7.53c.41.48.41,1.18,0,1.66l-6.47,7.54c-.51.59-1.42.59-1.93,0l-6.45-7.54c-.4-.48-.4-1.18,0-1.66Zm-56.95-71.47c-6.17-.59-15.66-4.34-19.19-5.37s-4.85-2.12-3.09-2.13c4.64-.02,16.17,1.98,20.88,3.16,4.7,1.18,6.32,1.1,7.42,3.01,1.1,1.91.15,1.91-6.03,1.32Zm-30.66-23.46c1.7,5,2.96,15.26,3.45,19.81.11,1.04-.92,1.82-1.88,1.43-2.76-1.11-7.63-3.22-11.04-5.58-3.31-2.29-5.3-4.19-6.27-5.21-.44-.47-1.14-.56-1.7-.24-2.76,1.62-10.76,6.24-16.45,8.79-.98.44-2.07-.37-1.93-1.44.52-4.07,1.81-12.49,4.24-18.18.26-.61.03-1.3-.52-1.67-3.99-2.66-9.36-8.85-12.01-12.04-.72-.87-.16-2.19.97-2.26,5.67-.38,14.99.08,17.82.23.52.03,1.01-.24,1.27-.68,1.37-2.36,5.74-9.82,8.01-13.51.54-.88,1.84-.88,2.36.02,3.01,5.1,5.29,11.27,6.05,13.43.17.49.6.84,1.12.91l17.69,2.43c1.15.16,1.61,1.58.76,2.38-2.74,2.56-7.64,7.01-11.48,9.84-.48.36-.67.98-.48,1.55Zm-47.25,5.52c-9.37.44-36.06.99-45.98.66-9.92-.33-10.58-1.73-8.71-1.87,6.18-.48,26.68-1.29,42.56-2.68,15.88-1.4,20.18-.44,20.29,1.34s1.21,2.11-8.16,2.55Zm-.22,9.59c-7.28-.22-23.09-.55-28.63-.33-5.55.22-3.15-1.16-.7-1.65,9.42-1.88,24.81-2.65,29.99-2.43s5.05,1.43,5.56,2.43c.51.99,1.06,2.21-6.22,1.98Zm-45.98-16.21c11.63-2.54,28.89-4.52,37.27-5.29,8.38-.77,13.67.7,9.81,1.45-3.86.75-31.64,3.62-39.8,5.38-8.16,1.76-11.21-.69-7.28-1.54Zm127.77,18.67c-3.14-.51-11.96-4.12-15.57-5.22-3.6-1.1-3.38-1.84-2.21-1.91,6.63-.4,14.85,1.91,17.05,2.79,2.21.88,3.86,4.85.72,4.34Zm-1.23-7.13c-1.32-.07-8.67-4.04-17.27-5.15-8.6-1.1-7.66-4.05-6.03-4.28,6.4-.91,16.39,2.59,21.17,4.95,4.78,2.35,3.45,4.56,2.13,4.48Zm-141.65-15.73c4.06-11.21,14.89-30.54,27.34-42.01,12.46-11.47,22.6-15.11,30.87-15.55,8.27-.44,14,3.42,20.51,8.38,6.51,4.96,14.66,5.51,18.96,4.08,4.3-1.43,3.86-1.43-1.1-1.54-4.96-.11-7.39-1.32-8.49-2.43-1.1-1.1.44-1.54,4.52-1.43,4.08.11,8.82-.99,13.12-2.98,4.3-1.98,8.93-2.21,13.67,5.73,4.74,7.94,15.77,37.49,17.75,42.67s2.98,9.7,3.25,10.75c.28,1.05-1.49.77-5.02-.83-3.53-1.6-9.26-3.91-11.19-4.47-1.93-.55-1.98-.55.66-3.25s7.77-7.17,2.7-8.38c-5.07-1.21-16.54-2.59-18.85-2.92-2.32-.33-2.21.06-4.91-5.07-2.7-5.13-6.67-12.24-7.77-14.5-1.1-2.26-2.81-1.6-5.95,2.32-3.14,3.91-7.94,12.24-9.26,14.17-1.32,1.93-2.48,1.98-6.34,1.76-3.86-.22-16.37-.5-17.31.83-.94,1.32-.33,4.19,1.38,6.34,1.71,2.15.44,2.54-2.26,2.32s-19.96.22-30.71,1.71c-10.75,1.49-19.46,4.02-22.88,5.84-3.42,1.82-3.01-.69-2.7-1.54Zm-87.62,52.41c2.57,3.01,4.04,3.45,3.38-.51-.66-3.97-1.76-20.51,9.56-29.29,11.45-8.88,28.96-12.17,53.07-9.23,24.11,2.94,49.1,12.5,56.75,16.32,7.64,3.82,29.25,9.7,34.99,10.73,5.74,1.03,6.18,1.18-2.5-2.21-8.67-3.38-17.49-8.67-12.94-7.94,4.56.74,15.88,2.65,21.17.88,5.29-1.76,16.17-3.23,23.82-.29,7.64,2.94,21.32,6.47,33.96,5.44,12.64-1.03,36.17-3.97,46.9-7.94,10.73-3.97,34.99-7.79,42.78,4.41,7.79,12.2-1.76,31.31-15.73,41.02-13.97,9.7-37.49,17.79-40.87,19.41-3.38,1.62-4.7,1.32-3.53,5.73,1.18,4.41,3.09,8.97,5,12.79,1.91,3.82-.15,2.35-4.12-2.94-3.97-5.29-8.23-14.11-5-16.47s26.02-9.56,39.55-19.85c13.53-10.29,23.38-18.82,21.32-30.73-2.06-11.91-15-14.11-33.37-7.35-18.38,6.76-34.11,12.64-58.95,15.44-24.85,2.79-48.66,2.79-83.06-11.32-34.4-14.11-68.8-24.26-97.03-18.52-28.23,5.73-30.43,24.55-27.64,34.84,2.79,10.29,18.96,24.7,26.61,28.08,7.64,3.38,11.03,7.06,6.76,6.32-4.26-.74-19.01-7.94-25.24-13.23-6.23-5.29-10.34-8.82-7.4-1.62,2.94,7.2,18.96,52.12,22.93,65.75,3.97,13.63,19.41,55.24,23.08,62.74,3.68,7.5,6.91,14.11,5.48,18.41-1.43,4.3-2.87,8.05-4.96,8.38-2.09.33-3.42-1.98-1.98-3.97,1.43-1.98-.55-3.64-2.65-8.49-2.1-4.85-15.22-44.21-15.88-45.87-.66-1.65,2.43-2.21,1.47-3.75-.96-1.54-2.28.44-2.87-1.69-.59-2.13-15.36-46.09-18.6-55.79-3.23-9.7-15.08-45.43-17.32-51.45s.48-9.26,3.06-6.25Zm-16.13,11.87c-1.21-3.42,1.27-5.71,3.55-7.5,1.93-1.51,3.06-.66,4.61,2.54,1.54,3.2,34.18,98.68,36.05,103.31,1.87,4.63-5.07,7.28-8.38,8.71-3.31,1.43-2.09.22-1.76-5.51s-3.42-14-7.28-24.59c-3.86-10.59-25.58-73.54-26.79-76.96Zm15.99,70.38c3.05-1.49,5.22,6.91,5.66,8.89.44,1.98-5.66,2.94-6.62,2.35s-2.13-5.73-2.78-7.64c-.65-1.91.9-2.22,3.74-3.6Zm-6.23-3.79c-.5-.83-3.75-8.77-5.29-13.07-1.54-4.3-.85-4.73.61-5.51,4.13-2.21,4.91.28,6.39,4.08,1.49,3.8,4.69,11.03,4.91,13.01.22,1.98-1.65,2.65-4.12,2.54s-2-.22-2.49-1.05Zm34.68,198.69c-3.09,7.5-6.73,15.44-12.79,15.22-6.07-.22-14.44-6.28-16.87-11.25s-1.83-17.81,3.42-25.58c2.76-4.08,4.08.44,2.32,6.62-1.76,6.17-3.2,12.79-.99,18.41,2.21,5.62,12.13,8.38,15.11,7.17,2.98-1.21,7.72-15.55,8.93-19.52s3.31-5.95,4.85-5.07c1.54.88-.88,6.51-3.97,14Zm-7.5-14.77c2.92-4.77,3.53.22,2.21,4.85-1.32,4.63-3.97,9.37-5.95,7.28s.31-6.52,3.75-12.13Zm23.08-34.58c2.5,2.5,2.57,5.29,1.18,6.76-1.4,1.47-2.79.74-9.04-4.93-6.25-5.66-13.44-11.69-14.51-11.03-1.07.66.92,2.28,5.33,6.17,4.41,3.9,10.88,11.83,13.6,14.26,2.72,2.43,4.85,4.63,3.31,7.72-1.54,3.09-5.15,2.5-9.04-1.76-3.9-4.26-12.06-11.47-14.19-13.01-2.13-1.54-4.19-.37-3.16.51,1.03.88,9.48,10.07,14.19,14.11,4.7,4.04,6.84,7.06,5.44,9.19-1.4,2.13-4.34,2.79-8.82-.44-4.48-3.23-10.81-10.14-13.23-10.51-2.43-.37-15.95-.37-17.35-.29-1.4.07,1.76,2.06-.74,3.53s-4.34-1.98-4.7-4.04-1.84-1.98-1.91.81,1.91,5.15,3.82,5.88-.88,5.29-1.84,6.32-4.85-3.53-6.25-7.94c-1.4-4.41-1.69-11.17,2.72-14.48,4.41-3.31,16.54-3.16,20.29-3.68,3.75-.51,5.51-2.28.74-2.35-4.78-.07-15.66-.07-17.72,0-2.06.07-1.1-5.37,1.69-7.57s10.58-2.35,14.85-2.65c4.26-.29,6.91-.59,8.38-1.32,1.47-.74,3.67-2.21-1.4-1.76-5.07.44-14.4.51-16.9.74-2.5.22-1.25-4.12-.74-5.44.71-1.83,6.95-3.38,13.33-4.56,6.37-1.18,11.82-.51,17.07,4.56,5.25,5.07,13.12,14.7,15.62,17.2Zm-29.26-58.92c6.17,1.98,11.25,8.38,14.33,13.34s.11,6.39-3.75,6.51c-3.86.11-5.51-2.98-9.7-6.18-4.19-3.2-10.03-4.66-13.78-3.83-1.45.32,2.21,1.74,5.68,2.4,3.48.66-1.49,2.87-4.13,2.02-2.64-.85-2.44-1.24-1.55.06.88,1.3,3.2,2.34,8.16,5.54,4.96,3.2,2.21,7.93-1.32,9.59-3.53,1.65-5.29-.77-10.25-9.59-4.96-8.82-3.97-13.79,1.43-17.98,5.4-4.19,8.71-3.86,14.89-1.87Zm-5.02-15.15c-4.08-1.71-3.99-7-.33-7.84,1.93-.44,3.37,1.45,4.02,2.54,1.83,3.04.39,7.01-3.69,5.3Zm28.69,38.42c-1.84,6.91-6.8,10.81-13.3,9.7-6.51-1.1-7.28-6.28-6.84-8.93.44-2.65.11-1.32,1.98,1.54s10.7,4.52,12.13-.22c1.43-4.74,5.7-9.92,2.24-12.35-3.45-2.43-8.53-8.93-11.39-13.34-2.87-4.41-3.42-12.24-5.73-19.3-2.32-7.06-3.31-10.03-7.61-10.25-4.3-.22-8.56.25-9.13,4.04-.57,3.79.2,9.41,3.4,13.38s4.31,5.4,3.48,5.51c-.83.11-3.37-.29-8.33-4.01-4.96-3.71-6.06-12.2-4.63-16.39,1.43-4.19,1.6-3.75-.22-2.32-1.82,1.43-3.91,4.74-2.81,9.76,1.1,5.02,4.69,11.69,6.06,13.18s.24,2.98-1.48,2.43c-1.72-.55-4.26-3.36-6.9-9.81-2.65-6.45-2.26-12.68.83-16.98,3.09-4.3,9.15-7.55,11.85-8.43,2.7-.88,7.28.66,9.43,3.8,2.15,3.14,3.31.94,1.16-2.48-2.15-3.42-4.41-4.25-6.95-4.19-2.54.06.39-1.16,2.87-1.65s4.52-.11,6.73,5.84c2.21,5.95,5.09,14.59,7.44,24.14s3.97,11.75,6.91,15.43c2.94,3.68,9.11,1.47,10.73-1.54,1.62-3.01.44-9.26-1.62-15.36-2.06-6.1-4.04-6.32-5.95-4.26-1.91,2.06-.37,10,2.35,11.98s1.25,2.43-.07,3.16c-1.32.74-7.06.37-9.34-8.01-2.28-8.38-3.75-21.17-5.88-25.36-2.13-4.19-2.92-6.53-.88-7.38,3.36-1.4,7.2-3.19,8.45-3.67s1.4-1.37,2.94,2.38,9.63,26.17,12.28,34.03c2.65,7.87,4.92,16.39,6.69,18.23,1.76,1.84,2.94,3.53,0,5.37-2.94,1.84-9.04,5.44-10.88,12.35Zm18.38-4.56c-2.35,2.35-7.5,7.28-10.14,9.63s-4.75,1.1-4.39-2.21c.53-5.02,8.66-9.97,10.97-11.88,2.32-1.91,3.42-1.94,4.52-.62s1.4,2.72-.96,5.07Zm6.69,20.21c2.72-2.28,7.5-5.22,9.19-7.35,1.69-2.13,2.5-5.37-1.54-2.02-4.04,3.34-10.65,9.07-11.54,8.05-1.51-1.74-.81-4.03,4.12-7.67,4.92-3.65,8.67-5.34,11.17-3.35s3.38,5.81.88,8.23c-2.5,2.43-10,8.53-11.76,8.16-1.76-.37-3.23-1.76-.51-4.04Zm3.6,5.29c4.53-4.53,10.07-8.75,9.85-6.98-.22,1.76-6.17,8.53-8.09,9.56-1.91,1.03-3.45-.88-1.76-2.57Zm20.73,136.58c-1.4-.51-9.22-3.61-14.63-5.81-.58-.24-1.03-.81-.96-2.06.07-1.25.22-8.75.51-20.21.29-11.47-.81-38.37-1.76-47.41-.96-9.04-.29-9.34.44-7.18.74,2.15,1.54,4.17,3.6,15.56,2.06,11.39,4.12,33.23,4.56,38.81s1.25,6.17,1.7,3.01c.45-3.16,1.24-15.44,0-31.17-1.24-15.73-3.39-30.28-4.27-40.21s0-9.19,1.54-5.44c1.54,3.75,4.19,21.1,6.98,34.47,2.79,13.38,3.75,53.51,3.82,60.13.07,6.62-.15,8.01-1.54,7.5Zm16.47-63.58c-.33-2.98-.11-5.6.99-4.91,1.94,1.22,4.91,2.21,3.36,4.85-1.54,2.65-4.02,3.03-4.36.06Zm-.06-16.87c.94-1.21,2.81-.34,6.12,2.92,1.36,1.34-.83,3.58-3.06,1.82-2.23-1.76-4-3.53-3.06-4.74Zm4.36,80.55c-2.81,2.38-3.88.63-3.42-3.75.72-6.78,3.42-2.87,4.96-1.21,1.54,1.65,1.27,2.59-1.54,4.97Zm0-31.98c-2.81,2.38-3.88.63-3.42-3.75.72-6.78,3.42-2.87,4.96-1.21,1.54,1.65,1.27,2.59-1.54,4.97Zm23.63,6.67c-1.03-1.54-5.22-6.54-6.32-7.79-1.1-1.25,3.22-4.32,6.32-6.47,2.73-1.9,5.88,1.77,8.31,3.97,2.43,2.21,4.34,2.94,2.72,5.51-1.62,2.57-9.48,8.89-11.76,11.03-2.28,2.13-3.45.29-6.76-4.78-3.31-5.07-3.82-5.66-2.41-6.17s3.37,2.28,6.66,5c3.29,2.72,4.28,1.25,3.25-.29Zm2.88,15.4c1.68,1.12,3.81,3.34,5.72,5.48,2.5,2.79,4.7,3.28,2.94,5.5-1.76,2.22-5.29,5.23-6.47,6.04-1.18.81-2.35-.74-5.66-3.45-3.31-2.72-5.66-5.51-4.56-7.94.04-.09.06-.17.09-.25.2-.23.44-.51.72-.85,2.06-2.5,5.39-5.37,7.21-4.53Zm5.06.19c-1.44-1.34-2.42-2.2-2.98-2.92,0,0,0-.01-.01-.02-.71-.93-.71-1.63-.1-2.87.07-.14.12-.26.15-.37.17-.18.35-.37.55-.59,1.58-1.69,5.25.15,6.72-1.69,1.47-1.84,3.97-3.82,5.59-1.76,1.62,2.06,7.01,6.52,6.34,8.99-2.4,3.08-6.38,7.19-8.2,7.25-2.03.07-4.75-2.94-8.06-6.03Zm-.59-33.96c-2.65-3.82-.22-4.7,2.06-6.32,2.28-1.62,3.26-2.31,5.95-5.37,1.86-2.11,7.87,4.12,10,7.35,2.13,3.23-4.12,6.91-7.34,9.3-3.22,2.39-8.02-1.14-10.67-4.96Zm3.99-16.99c-.36.85-1.05,1.79-2.27,3.03-3.12,3.16-4.95,7.72-7.75,6.54-2.79-1.18-3.6-3.31-.59-6.25,3.01-2.94,6.17-7.34,7.5-7.35,0,0,0,0,.01,0,.48.16.95.31,1.43.45,1.5.46,2.29,2.13,1.67,3.57Zm-12.89,1.48c-2.87,3.01-7.13-.81-9.63-3.23-.95-.92-1.62-1.82-2.01-2.6.01-.89.02-1.7.03-2.4.12-.11.26-.21.44-.29,1.54-.66,8.69-1.23,10.78-1.57h0c1.12.6,2.29,1.22,3.49,1.82.37.19.75.37,1.13.54,0,0,0,0,.01.01,1.87,1.62-1.36,4.71-4.23,7.72Zm-5.51,8.75c1.84-1.03,4.63,1.4,5.59,3.9.96,2.5-2.87,6.32-5.81,7.57-2.94,1.25-5.04-2.34-6.38-4.11-8.25-11.77-4.45-12.75.22-8.9h0c3.07,3.38,4.54,2.57,6.38,1.54Zm-8.9,30.88h0c3.68,1.76,5.81,1.91,6.98.73s3.01.29,5.29,2.06c2.09,1.62-3.41,7.73-5.96,8.17-2.03-.48-3.9-3.68-4.91-5.28-4.35-6.15-2.92-5.94-1.41-5.68Zm16.54,31.31c-1.69,1.62-4.3,6.18-6.23,5.41,0,0,0,0,0,0-3.46-2.34-6.84-4.54-9.57-6.21-.89-1.76,3.23-5.22,4.85-7.06s2.57.29,5.29,2.35c2.72,2.06,7.35,3.9,5.66,5.51Zm11.1,18.51h0c-.34-.31-.69-.63-1.03-.94-2.07-1.89-5.41-4.46-9.16-7.17,0,0,0,0-.01-.01-1.63-1.16,1.38-3.47,2.92-5.46,1.54-1.98,2.72-.66,3.9.51s5.73,4.48,7.06,5.73c1.32,1.25,1.47,1.25-.15,3.75s-1.9,4.09-3.52,3.59Zm9.99,1.56c-.64,4.23-2.78,4.03-5.55,2.14h0c-1.03-1.67,4.99-5.82,5.66-4.57.05.1.13.09.21.02-.12.96-.23,1.78-.32,2.41Zm1.44-12.86c-.85,2.05-2.4,1.83-4.82.36-2.43-1.47-9.19-6.69-7.79-8.97,1.4-2.28,4.85-5.66,6.47-4.7,1.62.96,6.49,4.91,6.74,7.05-.2,2.18-.4,4.29-.59,6.27Zm1.27-13.96c-.61.56-2.21-.33-4.11-1.34-2.21-1.18.29-3.68,1.03-4.7s3.12-3.64,3.73-1.86c-.21,2.61-.42,5.26-.65,7.9Zm2.88-42.19c-.03.55-.07,1.1-.11,1.66-.96,2.02-4.23,4.45-4.58,5.59-.35,1.11,2.55,2.17,3.98,4.11-.08,1.39-.17,2.78-.25,4.16-.14,0-.29.07-.44.26-1.03,1.25-2.65-.44-5.73-3.6-3.09-3.16-2.79-4.63.81-8.89,3.6-4.26,5.16-5.41,6.33-3.29h0Zm1.17-18.91c-.03.59-.07,1.31-.12,2.12-.47.23-1.27.14-2.53-.58-3.6-2.06-6.84-4.73-6.69-7.03.02-.24,1.18-.65,1.82-.63,0,0,.01,0,.02,0,3.09.53,6.03,3.91,7.21,5.31.12.14.22.29.31.45,0,.12,0,.23-.01.35Zm6.32-22.49c-6.47,5.29-7.5,12.35-22.93,5.73-15.44-6.62-37.49-21.32-48.22-33.96-10.73-12.64-16.02-19.41-16.32-22.93-.29-3.53.59-2.79,3.38.44,2.79,3.23,12.2,13.23,7.79,6.32-4.41-6.91-6.03-11.51-6.96-14.91-.94-3.4,1.19-3.52,3-1.03,5.39,7.45,11.61,20.79,23.08,31.23,11.47,10.44,31.9,23.67,37.64,26.02,5.73,2.35,7.79,2.5,14.85-4.12,7.06-6.62,17.79-18.38,15.73-14.26s-5.15,9.85-3.23,11.17c1.91,1.32-1.32,5-7.79,10.29Zm18.3,56.82c-.07,8.89-.51,26.17-.44,30.73.07,4.56-2.28,3.82-2.43.88-.15-2.94-1.1-28.15-1.4-34.18-.29-6.03-1.69-2.35-2.43,11.25-.74,13.6-.51,23.08-.96,26.02-.44,2.94-2.79,5.59-2.57-1.62.22-7.2.44-40.47,2.21-55.57,1.76-15.11,6.84-45.8,9.26-53.28,2.43-7.48,4.69-9.27,6.03-8.32,1.82,1.28,5.03,3.53,4.31,5.07-.71,1.54-5.71,22.93-8.36,37.78-2.65,14.85-3.16,32.34-3.23,41.24Zm4.63,24.62c-.15-16.03,2.35-52.19,4.56-62.19,2.21-10,3.82-10.58,3.53-2.79-.29,7.79.29,15.44,2.5,13.23,2.21-2.21,4.85,1.91,7.64,3.97,2.79,2.06,3.97,2.21,1.03,5.29-2.94,3.09-7.64,7.39-10.44,11.04s-2.06,6.01.88,4.1c2.94-1.91,3.09-1.18,6.03,1.03,2.94,2.21,4.26,3.23,2.5,5.88-1.76,2.65-14.55,19.85-16.02,21.9-1.47,2.06-2.18.74-2.21-1.47Zm37.93-17.35c-4.12,2.79-20.14,11.76-22.49,12.94-2.35,1.18-4.55,2.7-3.38.74,3.19-5.37,15.73-19.41,18.38-21.02,2.65-1.62,4.56-2.06,7.5,0,2.94,2.06,4.12,4.56,0,7.35Zm12.64-8.73c-2.24,1.59-3.6,1.32-5.15,0-4.33-3.71-11.47-10.97-11.61-13.17-.15-2.21,1.47-4.41,3.38-5.88,1.91-1.47,2.79,0,4.85,2.65,2.06,2.65,8.31,9.92,10.07,11.83,1.76,1.91,1.08,2.7-1.54,4.57Zm1.84-19.13c-2.57,1.76-4.2,1.91-5.41.96-1.21-.96-3.03-2.8-3.55-3.53-.94-1.31-.89-2.06,1.39-4.04,2.28-1.98,6.17-5,6.91-4.7.74.29,4.2,3.9,5.55,5.15,1.36,1.25-2.32,4.41-4.89,6.17Zm65.16-53.81c-.55,3.56-2.43,10.22-7.17,18.16-4.74,7.94-12.35,16.54-25.25,29.33-12.9,12.79-24.15,20.51-26.24,20.07-2.09-.44-2.43-2.32.66-5.62,3.09-3.31,15.33-12.35,22.38-18.74,7.06-6.39,9.59-12.13,11.8-17.97,2.21-5.84,8.05-7.39,11.91-11.03,3.86-3.64,3.75-5.18,1.21-7.06-2.54-1.87-3.09-3.64-2.09-4.41s7.26-4.28,10.47-7.5c1.87-1.87,2.87,1.21,2.32,4.78Zm8.2-16.1c-1.18,4.19-1.69,3.82-3.01,0-1.32-3.82-10.81-23.67-16.39-31.68-5.59-8.01-15.88-20.73-21.68-26.02-5.81-5.29-8.16-7.94-3.45-7.42,7.37.81,14.48,8.45,20.51,15.51,6.03,7.06,14.42,19.77,17.43,25.51,3.01,5.73,5.73,13.08,6.61,15.14.88,2.06,1.18,4.78,0,8.97Zm4.12-31.46c-2.21,4.34-4.63,7.2-7.64,2.06-1.45-2.47-1.32-3.56.81-6.3,2.13-2.74,5.51-7.59,7.28-5.17,1.76,2.43,1.76,5.07-.44,9.41Z" fill="currentColor"/>
  <path d="m349.9,71.83c-1.56-1.92-1.32-2.43-3.68-2.13s-6.4.44-4.85,2.13,2.94,5.07,5.15,5.51,5.59-2.79,3.38-5.51Z" fill="currentColor"/>
  <path d="m335.57,73.5c-2.67-.92-13.3-1.16-20.21-.79-6.91.37-25.07.85-25.65.79s.44,2,1.54,5.24,1.32,6.54,6.25,6.1c4.92-.44,20.07-2.35,26.54-3.75s14.04-1.91,15.36-1.91,1.03-4.01-3.82-5.68Z" fill="currentColor"/>
  <path d="m380.74,204.03c-.24,5.84-.66,13.12,0,15s2.87,2.32,6.28,1.65,2.68-2.09,2.72-4.74.81-17.09-.73-16.87-8.04-.68-8.27,4.96Z" fill="currentColor"/>
  <path d="m380.74,231.04c-.96,3.97-.99,9.74,2.21,10.77,3.2,1.03,7.94.92,8.49-4.04s.88-12.02-3.09-11.36c-3.97.66-6.84,1.43-7.61,4.63Z" fill="currentColor"/>
  <path d="m380.74,252.54c-.08,5.73-.33,11.91,0,15.55.33,3.64,3.2,5.62,5.95,5.29,2.76-.33,4.85.45,5.07-7.44s1-16.6-.77-18.36-10.16-1.98-10.25,4.96Z" fill="currentColor"/>
  <path d="m380.74,285.84c.03,5.19-.77,15.22,0,18.3s2.74,4.85,5.23,5.18,5.69-1.76,5.58-7.61c-.11-5.84,0-14.33,0-17.53,0-3.2-1.66-7.83-4.63-6.62s-6.19,5.07-6.17,8.27Z" fill="currentColor"/>
  <path d="m389.45,316.49c-1.94,1.75-2.13,4.15-1.91,7.83.22,3.68,1.84,3.9,3.09,2.5,1.25-1.4,1.98-4.52,1.98-6.45s-1.93-4.98-3.16-3.88Z" fill="currentColor"/>
  <path d="m387.02,337.99c-2.22,1.96-1.25,5.88-1.84,8.82-.59,2.94.59,4.56,3.31,0s3.53-7.5,2.21-8.82-2.43-1.1-3.68,0Z" fill="currentColor"/>
</svg>