<?xml version="1.0" encoding="UTF-8"?>
<svg id="b" data-name="Слой 2" xmlns="http://www.w3.org/2000/svg" width="400" height="520" viewBox="0 0 400 520">
  <path d="m350.68,80.31h25.59c.44,0,.81.36.81.81v8.17c0,.44-.36.81-.81.81h-17.59c-.25,0-.48-.1-.66-.27l-8-7.91c-.59-.59-.18-1.59.66-1.59Z" fill="currentColor"/>
  <path d="m384.75,162.98v-72.89h-2.14c-.59,0-1.06-.49-1.04-1.08l.26-7.69c.02-.56.48-1.01,1.04-1.01h12.55v78c0,4.33-10.67,9.67-10.67,4.67Z" fill="currentColor"/>
  <path d="m395.42,184.87v49.44c0,5.22-10.67,9.33-10.67,2.33v-52.22c0-6.89,10.67-3.78,10.67.44Z" fill="currentColor"/>
  <path d="m395.42,251.42v30.67c0,4.15-2.07,6.67-5.78,6.67s-4.89-1.63-4.89-7.26v-29.52c.89-6.89,10.67-8.22,10.67-.56Z" fill="currentColor"/>
  <path d="m230.23,47.57c5.32-3.78,15.19-7.19,22.15,1.11,6.96,8.3,8.52,20.52,10.44,28.67,1.93,8.15.89,10.81-1.7,4.52-2.59-6.3-8.44-23.41-12.59-28.74-4.15-5.33-8.22-5.41-13.33-4.37s-6.86.17-4.96-1.19Z" fill="currentColor"/>
  <path d="m389.42,168.09c-3.9,3.27-5.67,6.22-1.78,7,3.89.78,7.44,1.44,8.33-3.5.89-4.94-3.55-6.02-6.56-3.5Z" fill="currentColor"/>
  <path d="m282.67,68.01c1.6,2.72,3.48,5.64,6.37,5.78,4.59.22,11.56.81,10.44-.74s-4.37-5.04-6.3-5.11-11.19-1.06-10.52.07Z" fill="currentColor"/>
  <path d="m305.34,69.64c.65,1.51.22,4.22,4.96,4.07,4.74-.15,18.44.09,20.3,0s-.44-2.08-2.37-3.41-6.74-.81-11.63-1.19c-4.89-.37-11.76-.65-11.26.52Z" fill="currentColor"/>
  <path d="m333.34,70.16c1.27,1.62,5.48,4.96,6.59,2.15s.3-2.89-1.7-2.96-5.57-.06-4.89.81Z" fill="currentColor"/>
  <path d="m347.79,69.94c-2.68,0-2.89,3.53,3.78,3.8,6.67.27,9.85.64,12.67-.84s4.52-2.96-2-2.96h-14.44Z" fill="currentColor"/>
  <path d="m105.93,70.83c-4.15.04-7.7.22-8.22-1.85s1.19-4.44,5.63-3.19,6.6,5,2.59,5.04Z" fill="currentColor"/>
  <path d="m87.34,70.39c-4.6-.58-6.37-5.33-2.81-5.56s5.78,1.04,6.3,2.78-1.11,3.07-3.48,2.78Z" fill="currentColor"/>
  <path d="m338.67,80.31h-54.22c-.89,0-.98.89.44,5.04,1.32,3.87,1.19,4.88,4.15,4.74,2.96-.15,5.56-.96,1.7,3.04s-6.3,5.56-7.63,0c-1.33-5.56-7.11-23.78-11.41-35.63-4.3-11.85-13.93-33.48-31.11-33.19-17.19.3-27.7,8.74-36.89,7.85-9.19-.89-14.96-9.34-31.85-7.85-16.89,1.48-23.26,14.67-25.78,24.6-2.52,9.93-10.22,32.74-11.7,38.07s-1.19,11.26-4.89,9.04c-3.7-2.22-3.41-4-1.56-6.52,1.34-1.83,2.16-5.83,2.51-7.89.11-.68-.41-1.29-1.1-1.29h-47.81c-.63,0-1.16.48-1.2,1.11l-.22,2.78c-.05.7.48,1.29,1.18,1.3,2.17.02,6.78.11,11.31.44,6.22.44,20.44,5.33,35.41,13.78s49.63,27.7,84.07,27.04c34.44-.67,49.63-8.67,60.74-15.78,11.11-7.11,27.7-17.56,42-23.26s22.89-4.15,25.7-3.85c2.81.3-.07-3.56-1.85-3.56Zm-71.93,25.11c-2.78,2.44-9.56,1.89-18,3.67s-9.67,2.56-3.11,2.78c6.56.22,13.89-1.56,7.89,2-6,3.56-20.78,4.78-34,5.78-13.22,1-39-2-44.11-4.33-5.11-2.33,4.44-2.66,16.67-3.61,12.22-.95,16.16-1.72,6.75-2.17s-21.86-.67-31.3-2.11c-9.44-1.44-9.89-3.78-5-3.78h76.33c14.22,0,30.67-.67,27.89,1.78Zm-124.9-8.44c-1.06,0-1.87-.93-1.72-1.98.49-3.47,1.57-10.6,2.68-13.86,1.5-4.39,2.39-7.5,7.17-7.83,4.78-.33,5.78,2.33,3.56,3.44-2.22,1.11-4.72,5.22-5.06,7.39-.33,2.17,3.5.39,6.17,1.94,2.67,1.56-3.17,1.17-6.94,2.61s-4.67,4.17-3.11,4.17h42c6.83,0,6.06-.67,4.94-1.61-1.11-.94-4-2-10.11-2.28-6.11-.28-18,.67-14.56-1.28,3.44-1.94,11.22-3.44,16.5-3.39,5.28.06,7.28.06,5.44-1.44s-5.83-2.5-12.94-2.28-11.89-.61-8.39-2.33c3.5-1.72,12.67-2.33,16.78-1.78s4.5-.39,2.44-1.44-4.61-1.78-10.22-1.83-7.61-1.72-4.11-3.11,8.78-1.17,12.28-.33c3.5.83,1.94-2.11-4.28-3.28s-9.94-.89-8.83-2.39,4.83-2.11,8.83-1.33c4,.78,5.78,1.44,2.78-1.06s-7.61-2.06-10.06-3.72c-2.44-1.67,3.44-3.17,6.83-2.56,3.39.61,3.61.78,2.44-.89-1.17-1.67-3.5-2.33-7.72-3.33s-1.17-3.28,1.78-2.94c2.94.33,4,2.11,3.56.22-.44-1.89-3-3.89-6.17-3.78-3.17.11-3.2-3.43-6.76-5.06-3.56-1.63-6,.67-5.56,5.26.44,4.59.04,13.07-.59,15.74-.63,2.67-3.11,1.59-4.63,2.44s-2.67,1.78-1.19,1.81c1.48.04,2.33.78,2.63,3.48.3,2.7-2.59,1.3-5.96,1.22-3.37-.07-4.63.44-4.44-1.11.19-1.56,5.89-8.78,6.04-15.44.15-6.67,3.11-18.96,14.96-21.8,11.85-2.84,24.15,2.98,35.56,7.43,11.41,4.44,23.41-8,34.96-7.41s23.56,13.93,27.26,26.22c3.7,12.3,9.56,39.48,9.56,39.48h-133.79Z" fill="currentColor"/>
  <path d="m230.45,159.27c-1.06.18-3.78.78,0,2.04s8.89,4.22,16.78,3.52,8.81-3.74,7.11-2.89-7.11,2.04-12.7.89c-5.59-1.15-9-3.93-11.19-3.56Z" fill="currentColor"/>
  <path d="m193.76,159.27c1.06.18,3.78.78,0,2.04-3.78,1.26-8.89,4.22-16.78,3.52-7.89-.7-8.81-3.74-7.11-2.89s7.11,2.04,12.7.89c5.59-1.15,9-3.93,11.19-3.56Z" fill="currentColor"/>
  <path d="m161.71,178.68c-3.93-3.41-8.3-10.37-7.93-14.74.37-4.37.37-1.41,3.04,3.56,2.67,4.96,6.22,8.89,8,10.67s-1.29,2.1-3.11.52Z" fill="currentColor"/>
  <path d="m63.19,262.39c-3.83-5.59-6.96-5.33-6.3-7.41s2-1.19,5.78,3.85c3.78,5.04,2.3,6.15.52,3.56Z" fill="currentColor"/>
  <path d="m20.42,221.09c-4.46,1.78-11.78,11.22-12.89,12.67s.22,1.52,1,4.54-.44,10.35,3.44,5.68,10.89-11.56,13-12.56,1.56-2.44.44-5.11-2.78-6.11-5-5.22Z" fill="currentColor"/>
  <path d="m9.64,220.62c5.43-2.44,8.44-8.53,7.89-13.42-.56-4.89-3.89-8.44-7.89-5.78-4,2.67-3,8.22-1.44,11.44s-1.22,8.96,1.44,7.76Z" fill="currentColor"/>
  <path d="m279.19,140.17c-3.02-.55-4.56-.6-2.11,2.38s6.56,2.65,5.44.54c-1.11-2.11-2.04-2.68-3.33-2.92Z" fill="currentColor"/>
  <path d="m245.42,278.43c4.8-4.08,10.11-12.12,7-19.56-3.11-7.44-7.22-8.67-7.78-11s-2.33,0-1,5.38c1.33,5.39,4.11,8.39,2.33,14.5s-2.6,12.41-.56,10.67Z" fill="currentColor"/>
  <path d="m364.11,277.42c-12-9.78-25.78-15.67-27.33-16.56-1.56-.89-1.33-6.78,2.22-5.78s21.56,11.11,28.56,16.33c.72.54,4.85,3.58,7.47,5.51.91.67,2.19.02,2.19-1.11l.67-180.1h-15.18c-.84,0-1.31.65-1.04,1.44,1.56,4.57,3.94,10.5,2.61,19.41-1.89,12.67-5.95,25.41-21.84,41.53-15.89,16.11-36,23.33-37.78,24.33-1.78,1-1.67,6.44-1.56,8.89.11,2.44,1.33,2.89,6.44,7.11,5.11,4.22.33,3-4.33.44-4.67-2.56-8.44-5.11-8.89-6.78-.44-1.67,1.22-8.11,2.22-11.44,1-3.33,1.22-4,6-6s19.56-9.89,31.3-21.59c11.75-11.7,18.92-26.37,19.66-38.81.74-12.44-2.52-19.11-15.41-21.93-12.89-2.81-30.44,2.89-47.11,14.67-16.67,11.78-44.67,25.56-71.78,27.56s-41.67-3.67-54.22-8.67-46.56-24.56-60-30.11c-13.44-5.56-25.78-4.17-27.94-2.94-2.17,1.22-2.78,1.44-3.06.22s-2.11-16.72-3.78-22.83c-1.67-6.11-2.56-7.89-6.94-9-4.39-1.11-9.22,2.33-14.06,7.56-4.83,5.22-3.33,7.83-3.33,11.56H6.78v106.37c0,1.57,0,3.1,0,4.62,0,0,0,0,0,0-.02,5.89,11.89,3.33,11.67-5.56s-.56-95.67-.56-95.67h31.13c.49,0,.89.38.91.87l.2,3.8c.03.52-.39.96-.92.96h-24.22v113.19c0,5.93,2.96,4.3,4,8.74s.44,12.44,2.07,14.67c1.63,2.22,2.07,1.48-5.19,5.63-7.26,4.15-19.26,24.3-18.96,41.48.3,17.19,3.67,13.31,1.24,21.03-1.47,4.67-3.42,10.82-4.25,17.02.49,4.76,1.39,9.76,2.86,16.18,7.56,32.89,31.56,62.67,72.89,88.44,41.33,25.78,88.44,36,124.44,73.78,32.89-40.44,98.67-62.22,143.56-105.78,32.83-31.86,43.31-62.29,46.58-85.56-.8-3.11-18.13-17.33-30.13-27.11Zm5.28,13.33c.94.11,4.56,1.33,6.5,3.67,1.94,2.33-2.56,2.83-4.36.83s-2.86-4.58-2.14-4.5Zm8.94,24.72c.33,1.06-2,3.22-5.11,4.94-2.87,1.59-3.94,1.83-4.67,1.33s-3.12-3.56-4.56-5.89c-1.44-2.33-.78-2.89,0-3.67.78-.78,4.38-3.58,6.26-5.11.89-.72,1.97-1.22,3.02.5s4.73,6.83,5.06,7.89Zm-9-16.67c.94,1.78-.33,2.33-3.44,4.67s-3.67,1.56-4.28.28c-.61-1.28-3-6.39-3.39-7.44-.39-1.06,1.51-2.48,3.78-3.67,1.39-.72,6.39,4.39,7.33,6.17Zm-11.11,31.28c-2.56,2.06-3.39,2.44-4.11,1.94s-2.89-2.83-4.33-5.17c-1.44-2.33-.78-2.89,0-3.67s4.12-4.25,6-5.78c.89-.72,2.22-.56,3.28,1.17s3.72,5.61,4.06,6.67c.33,1.06-2.33,2.78-4.89,4.83Zm1.33-44.72c2.61,2.39,1.72,2.94-.22,4.28-1.94,1.33-3.22,2.17-4.11,1.11s-2.63-5.69-4-9.83c-1.09-3.3,5.72,2.06,8.33,4.44Zm.93-48.21l-6.52,7.6c-.51.59-1.43.59-1.94,0l-6.5-7.6c-.4-.48-.4-1.19,0-1.67l6.54-7.59c.51-.59,1.42-.59,1.93,0l6.5,7.59c.41.48.41,1.19,0,1.67Zm-3.28-78.97l4.53-5.26c.35-.41.98-.41,1.34,0l4.5,5.26c.29.33.29.82,0,1.16l-4.52,5.27c-.35.41-.99.41-1.35,0l-4.5-5.27c-.28-.33-.28-.82,0-1.16Zm-34.58,29.61l17.74-.84c.37-.01.69-.26.83-.62l5.82-16.25c.29-.81,1.45-.81,1.74,0l5.82,16.25c.14.36.46.61.83.62l17.74.84c.88.04,1.21,1.16.51,1.67l-14.07,10.21c-.32.23-.46.63-.34,1.01l5.12,17.42c.25.86-.72,1.53-1.43,1.01l-14.5-10.54c-.32-.23-.76-.23-1.08,0l-14.5,10.54c-.72.52-1.68-.15-1.43-1.01l5.12-17.42c.11-.37-.03-.77-.34-1.01l-14.07-10.21c-.7-.51-.37-1.63.51-1.67Zm-26.64,42.96c3.22,4,7,19,9.78,23.78,2.78,4.78-.11-2.33-2.44-11.33-2.33-9-4.33-17.89-5.78-25.67s-.67-10,4.11-2.44c4.78,7.56,8.44,20.78,10.44,32s4,18.33,9.11,24.89,8.67,10.44,6.33,11.89c-2.33,1.44-8.78-1.89-15.11-3.44-6.33-1.56-12.56,1.11-7.44,1s9.6,4.22,16.75,6.67,16.37,3.56,13.14,0-8.11-11.11-11.11-21.22c-3-10.11-7.33-30.89-10.11-41.44-2.78-10.56-7.67-15.83-11.83-17.67-4.17-1.83-5.44-4.43-3.5-4.63,6.93-.73,13.19,4.44,17.63,12.89,4.44,8.44,10.52,38.52,17.48,53.48,6.96,14.96,14.22,26.07,17.48,29.33s3.85,6-2.81,3.85c-6.67-2.15-23.19-9.41-34.15-10.44-10.96-1.04-19.7-.89-21.63-.44-1.93.44-1.7-.96-3.63-3.11-1.93-2.15-1.93-3.78,1.11-4.15s7.93-1.63,9.63-2.67c1.7-1.04-.78-1.22-5-1.22s-6.44,1.67-8.89-2.89c-2.44-4.56-4.22-13.78-3.11-17.33,1.11-3.56,2.22-4.33,2.44.33.22,4.67,3.44,14.22,5.44,16.67,2,2.44-.44-3.89-1.78-12s-3-17,.33-20.22c3.33-3.22,7.33.78,5.33-4-2-4.78-1.44-14.44,1.78-10.44Zm47.77,87.41c-.69-.89-.34-2.32.78-3.2,1.13-.88,2.6-.88,3.3,0s.34,2.32-.78,3.2c-1.13.88-2.6.88-3.3,0Zm-.5,21.62c-3.11,2.82-4.28,3.63-5.56,1.85-1.28-1.78-3.06-4.22-2.67-5,.39-.78,4.43-4.3,6.06-5.78,1.37-1.25,4.72,3.06,5.5,4.44.78,1.39-.22,1.67-3.33,4.48Zm-62.31-185.26c2.22-.56,5.11.08,6.44,4.71,1.33,4.63,1.78,8.18,2.44,2.29.67-5.89-1.67-9.22-4.89-9.44-3.22-.22-4-1.33-4-2.33,0-4.41,9.67-1.89,11.78,4.44s-.11,19-3,26.44-7.67,10.11-5,2.78c2.67-7.33,5.22-15.22.89-19.78-4.33-4.56-6.89-8.56-4.67-9.11Zm-.33,21c-.78,4.78-2.78,5.44-1.35,10.67,1.43,5.22,3.35,2.56,6.23,8.18s.11,6.04-1.56,1.93c-1.67-4.11-6.56-4.78-8.1-7.44-1.54-2.67-1.35-4.22-2.01-1.11-.67,3.11.22,7.44,4.89,11.09,4.67,3.65,6.44,12.01,8.12,17.57,1.68,5.56-.45,10.22-4.76,6.22s-3.36-7.78-2.8-12.56-4.67-6.44-5.22-8.33c-.56-1.89-1-3.11-2.11-.44-1.11,2.67-1,4.22,2.11,8,3.11,3.78-1.44,7,.67,11.56,2.11,4.56,4.67,3.67,8.67,11.67s-2.56,10.33-2.11,7.78c.44-2.56-2.89-9.67-7.33-13-4.44-3.33-4.56-5.11-3.89-10.56.67-5.44-3.22-7.56-4.67-10.56-1.44-3-2.11-1.78-2.33.56-.22,2.33,2.11,3.44,3.81,9.78,1.69,6.33-2.03,6.78,0,10.89s7.75,7,9.42,18.56-3.22,12.22-3.11,10.44c.11-1.78-1.78-7.33-4.33-13-2.56-5.67-10.22-7.78-12.67-12.33s1.11-5.33,2.78-2.56c1.67,2.78,3.11,3.11,6.67,5.56,3.56,2.44,5.44,8.33,5.33,5.44s-5.67-9.44-8.22-14.11c-2.56-4.67.33-9.56-1.78-12.44-2.11-2.89-3.89-6-2.22-8.33,1.67-2.33,2.78-11.78,1.89-15.22-.89-3.44,3.44-.56,3.78,4.96.33,5.52-1.11,6.82,1,5.15,2.11-1.67,3.44-4.78,2.33-9.56-1.11-4.78-1.22-4,2.22-6.22,3.44-2.22,3.91-4.69,8.44-10.67,2.44-3.22,3-2.33,2.22,2.44Zm-32.26,34.78c2.81,4.07,2.07,5.56-1.11,2-3.19-3.56-16.65-13.95-18.37-15.56-3.11-2.9-2.81-5.04,1.11-2.52,3.93,2.52,11.26,9.04,8.59,6.37-2.67-2.67-6.44-8.15-3.93-7.78,2.52.37,16,10.52,19.78,17.56,3.78,7.04,2.78,10.81.91,7.26-1.87-3.56-8.02-10.96-10.54-13.11-2.52-2.15.74,1.7,3.56,5.78Zm-24.81-11.46c-2.22-2.95-1.7-4.76.74-2.91,2.44,1.85,7.48,7.33,7.85,9.41s-.92,2.44-3.64-1.04c-2.73-3.48-4.06-4.28-4.95-5.46Zm-4.59,1.98c-2.44-4.3-1.85-4.74,2.67-.74,0,0,.67.37,3.04,3.33,2.37,2.96-3.26,1.7-5.7-2.59Zm22.82-47.41c1.07,0,1.94.65,1.94,1.44s-.87,1.44-1.94,1.44-1.94-.65-1.94-1.44.87-1.44,1.94-1.44Zm-18.55-12.3c3.56-.3,12.44-2,10.3,0-5.1,4.75-10.44,4.52-12.44,2.22s-1.41-1.93,2.15-2.22Zm-20.24,0c3.56.3,4.15-.07,2.15,2.22s-7.35,2.52-12.44-2.22c-2.15-2,6.74-.3,10.3,0Zm-46.15-.96c1.11-4.23,4.89-5.56,6.44-5.19,1.56.37,1.48,1.85-2.07,4.44-3.56,2.59-4.15,6.89-2.81,9.41,1.33,2.52,1.26-3.41,7.04-5.33,5.78-1.93,11.48-1.33,14.59.52,3.11,1.85,3.85,3.93-.74,3.11-4.59-.81-11.11,2.52-13.56,4.81-2.44,2.3-5.63,3.04-4.74,4.07.89,1.04,6,1.57,7,1.57s-.39-.28-.39-1.39-.39-2.22,1.28-.06c1.67,2.17,6.78,2.33,9.72,1.22,2.94-1.11,2.83-3.22,3.83-2.5,1,.72,1,2.22.83,2.67-.17.44,3.94.83,6.11-.11,2.17-.94,5.89-.89,3.5,1.44-2.39,2.33-5.22,3-6.39,3.5s-1,1.22,2.5.72,7.39-1.17,9.06-2.17,2.67-1.06,2.89,1.61c.22,2.67.44,7.94,1.33,11.5s.28,4.67-1.06,4.83c-1.33.17-2.83,1.94-1.22,2.89,1.61.94,5.17-.83,5.17-4.61s.89-20.06.83-23.33c-.06-3.28,3.33-4.5,7.67-4.72,4.33-.22,7.5.5,7.5,2.44s-1.28,7.17.33,11.61,1.67,1.78,2.17-1.67,1.11-3.44,4-3.94c2.89-.5,4.17.17,4.17-1.89s3.61-3.44,3.67-.89c.06,2.56,4,3.72,7.94,3.56,3.94-.17,5.28-2.22,5.33-3.67.06-1.44,1.94-1.39,2.5.72.56,2.11,1.67,1.94,4.17,2,2.5.06,6.33-.89,7.78-1.56,1.44-.67-1-3-3.33-3.67-2.33-.67-7.67-4.39-13.67-5.56-3.55-.69-4.97-.19-4.33-.72,2.7-2.24,10.07-4.15,15.11-2.22,5.04,1.93,6.89,3.11,8,4.3,1.11,1.19,2.44-.52,1.11-4.67-1.33-4.15-3.04-5.33-4.67-6.89-1.63-1.56,1.66-3.48,5.87.81s2.58,10.37,5.91,14.3c3.33,3.93,2.52,11.93-.67,18.89-3.19,6.96-12.23,11.19-13.93,14.07-1.7,2.89-.96,5.26-1.55,9.93-.59,4.67-4.52,5.48-8,2.44-3.48-3.04-11.7-10.22-15.48-14.3-3.78-4.07-5.19-2-3.41-.44s1.11,5.33-2.07,4.67c-3.19-.67-6.07-.59-9.56,1.85-3.48,2.44-8.37,3.04-11.26.96-2.89-2.07-4.59-2.81-7.11-3.04s-4.44-.74-4.81-4.15c-.37-3.41,3.85-7.26,1.04-5.78-2.81,1.48-10.15,6.74-14.74,12-4.59,5.26-9.63,11.52-12.74,10.02-3.11-1.5-2.44-7.57-.52-11.87,1.93-4.3,1.56-5.41-1.26-2.89-2.81,2.52-3.85,3.78-4.22,6.67-.37,2.89-2.52-.81-2.22-3.48.3-2.67,1.33-4.3-1.11-5.78-2.44-1.48-8.44-9.63-8.74-17.19-.3-7.56,4.89-19.69,6-23.92Zm19.45,14.7c0,.8-.87,1.44-1.94,1.44s-1.94-.65-1.94-1.44.87-1.44,1.94-1.44,1.94.65,1.94,1.44Zm36.8,53.67c-3.35,0-3.81-1.57-1.46-3.19,1.2-.83,1.33-.67,2.89.56,1.56,1.23,1.93,2.63-1.43,2.63Zm-34.09-4c-2.52,2.15-8.67,9.56-10.54,13.11-1.87,3.56-2.87-.22.91-7.26,3.78-7.04,17.26-17.19,19.78-17.56s-1.26,5.11-3.93,7.78c-2.67,2.67,4.67-3.85,8.59-6.37,3.93-2.52,4.22-.38,1.11,2.52-1.73,1.61-15.19,12-18.37,15.56-3.19,3.56-3.93,2.07-1.11-2,2.81-4.07,6.07-7.93,3.56-5.78Zm12.67.81c.37-2.07,5.41-7.56,7.85-9.41,2.44-1.85,2.96-.04.74,2.91-.89,1.18-2.22,1.98-4.95,5.46-2.73,3.48-4.01,3.11-3.64,1.04Zm7.48-1.93c2.37-2.96,3.04-3.33,3.04-3.33,4.52-4,5.11-3.56,2.67.74-2.44,4.3-8.07,5.56-5.7,2.59Zm-60.44-20c2.67,7.33-2.11,4.67-5-2.78s-5.11-20.11-3-26.44,11.78-8.85,11.78-4.44c0,1-.78,2.11-4,2.33-3.22.22-5.56,3.56-4.89,9.44.67,5.89,1.11,2.33,2.44-2.29,1.33-4.63,4.22-5.26,6.44-4.71,2.22.56-.33,4.56-4.67,9.11s-1.78,12.44.89,19.78Zm-28.74,99.33c3.11-1.56,10.89-1.56,15.33,1.22,4.44,2.78,1.89,8.56-1.22,7.11-5.89-2.74-10.89-2.22-16.44-.56-5.56,1.67-6.11,1.33-5.44-2.67s1.89-18.33,1.56-23.22,6.11-20.32,6-24.72,7.57-16.42,11.17-24.46,6.61-11.98,3.16-1.29c-3.44,10.69-6.78,20.47-11.06,36.25-4.28,15.78-4.06,20.11-.17,10.44,3.89-9.67,10.04-27,12.74-34.44,2.7-7.44,2.26-4.33,2.81-.33.56,4,4.44,2.11,1.44,8.33-3,6.22-10.11,17.22-6,13.22s10.03-11.11,7.12-1.22c-2.9,9.89-7.79,17.56-9.12,21.78-1.33,4.22-.22,3.18,5.22-4.46,5.44-7.65,8-11.09,6.33-2.87-1.67,8.22-2.22,19.24-7.22,18.12s-11.78-2.01-16.33.88c-4.56,2.89-3,4.44.11,2.89Zm-15.11-85.22c-.33-12-4.4-12.33-4.09-8.89.31,3.44,1.69,10.11,0,8.56-4.18-3.85-3.13-11.22-1.02-15.22s9.11-4,10.22,0-.25,24.89-1.01,34c-.76,9.11.9,13.78,5.9,10.33,5-3.44,4.56-3.78,4.11,0-.44,3.78-4.33,6.78-5.33,7.67-1,.89-1.45,6.36-1.67,11.51s1.97,10.04-2.12,6.93c-4.1-3.11-5.76-8.96-5.54-19.2.22-10.24.89-23.69.56-35.69Zm-14.68,8.11c-2-6.52-7.18-4.89-7.92-1.04-.74,3.85,2.22,4.3,3.7,3.85,1.48-.44,1.93,5.33,1.33,7.41-.59,2.07-7.26,2.81-9.04-3.26-1.78-6.07-1.63-21.78-1.63-27.11s.3-5.48,7.85-7.7c7.56-2.22,10.22-2.37,10.07.3s.44,14.07,2.52,20.76c2.07,6.69,3.26,8.35,3.59,18.01.33,9.67-.11,19.22-1.44,18.44-1.33-.78-11.49-4.3-14.89,2-.74,1.37-1.56,1.37-2.15-.41s-1.41-11.26-1.41-14.67,5.04-.74,8.74-1.04c3.7-.3,2.67-9.04.66-15.56Zm27.79,9.22c1.11,5.56-3.78,7.56-5.44,5.92-1.67-1.64-.25-29.15,3.33-33.03,2.67-2.89,3.44-1.45,3.37,1.89s5.19-3.23,8.72-4.78c3.53-1.56,4.69-.56,2.58-2.78s-10.89-4.89-20-9.02-10.78-8.54-10.56-11.26c.22-2.72,5.22,1.38,13.11,7.16,7.89,5.78,18.78,6.56,22.33,11.67,3.56,5.11,1.89,8.89-.67,8.41-2.56-.48-6.22-.3-13.78,3.51-7.56,3.81-4.11,16.75-3,22.3Zm-28.31-116.5c2.11-1.22,3.83-.5,4,1.72.17,2.22-2.71,3.35-3.31,3.28-2.78-.33-2.8-3.78-.69-5Zm-14.02-30.01c1.07.36,2.78,1.35,3.08,3.96.44,3.86,16,94.83,16.61,98.22q.61,3.39-.33,2.28c-.56-.66-1.8-.92-2.73-1.02-.67-.08-1.21-.59-1.31-1.26l-16.07-101.53c-.07-.43.34-.79.75-.65Zm-9.53,4.18c2.22-2.67,4.49-3.73,5.76-4.14.53-.17,1.08.19,1.16.74l14.69,101.95c.14.96-.45,1.87-1.38,2.15l-6.4,1.89c-1.13.33-2.3-.4-2.48-1.57-1.95-12.51-10.97-75.03-12.17-83.92-1.33-9.89-2.52-13.11.81-17.11Zm-10.44,142.33c-3.11-4.22-6.11-2.33-6.22,2.56-.11,4.89,3.78,6.67,6.67,8.56,2.89,1.89,0,5.44-3.33,7.67-3.33,2.22-4.26,2.38-6.22-2.67-4.44-11.44-2.67-19.33,1.78-22.33,4.44-3,9.11-3.11,12.44-1.44,3.33,1.67,8.11,7,11.56,13.33,3.44,6.33-3.22,8.44-7,6.11-3.78-2.33-6.56-7.56-9.67-11.78Zm-2.22,6.56c-2.11-1.44-1.77-3.46-1.17-5.44.34-1.12,1.33-.5,2.83,2.72,1.5,3.22.44,4.17-1.67,2.72Zm4.71-26.59c2.15,4,1.48,6.67-1.78,5.68-3.26-.99-4.64-8.31-3.41-9.75.89-1.04,3.04.07,5.19,4.07Zm-3.11-10.52c3.11-1.04,6.96.37,8.9,3.48,1.94,3.11-3.94-.52-6.83-.59s-5.61-1.71-2.07-2.89Zm5.92-31.41c.08-1.56,6-.59,7.56-.52,1.56.07,2.81,8.07,3.56,13.78.74,5.7-.74,5.56-4.44,6.74-3.7,1.19-6.59-1.56-6.67-5.04-.07-3.48-.1-13.1,0-14.96Zm-.13-4.44c-1.91,0-1.21-7.04-1.06-9.11.15-2.07.76-1.64,3.91-2.15,3.28-.53,4.31,8.07,4.46,10.3.15,2.22-5.41.96-7.31.96Zm9.68,60.37c-1.7-1.7-.89-3.26-.96-11.48s-.15-16.67-2.07-18.59.07-2.46,3.04-3.55c.9-.33,1.48.58,1.33,2.66-.15,2.07.74,12.67,1.43,23.33s-1.06,9.33-2.76,7.63Zm-9.31-96.67c.81.04,1.84.27,2,1.26.36,2.19,1.85,17.7,2,19.26.15,1.56-5.26,2-6.13,2.22-.87.22-1.8-15.7-2.09-19.11-.3-3.41,1.25-3.78,4.22-3.63Zm3.82,68.07c.99.91.3,5.19-2,3.11-2.3-2.07-7.7-3.78-11.7-.59-4,3.19-2.67,12.81-.44,15.7,2.22,2.89-1.85,6.22-4.59,0-2.74-6.22-2.44-15.7,3.04-19.11,5.48-3.41,12.41-2.12,15.7.89Zm-23.56-62.89c1.93-5.78,7.48-10.81,8.81-11.19s.59,5.04.59,5.97-1.48,2.55-3.33,5.66.17,7.86,4.52,11.41c1.18.96,2.07,4.52,1.63,8.67-.44,4.15-5.56-1.56-8.67-5.56-3.11-4-5.48-9.19-3.56-14.96Zm-9.6,147.33c3.63-1.63,13.26-2.22,19.63-1.93,6.37.3,5.11-1.78,2.07-2.96-3.04-1.19-11.04-1.85-17.26-1.04-6.22.81-2.67-3.7.22-5.11,2.89-1.41,13.56-2.59,20.52-1.85s5.93-.81,3.19-2.37c-2.74-1.56-8.52-2.59-14.07-2.52s-4.74-2.3-2.52-3.7c2.22-1.41,8.22-2.07,16-1.93,7.78.15,9.19,0,12.15,2.81s13.33,17.19,15.85,20.07c2.52,2.89,4.96,5.63,2.44,7.26s-5.85,1.26-8.22-1.48c-2.37-2.74-2.59-1.56-1.85.44s3.04,6.22,5.63,9.7c2.59,3.48-2.07,7.19-5.7,4.15-3.63-3.04-6.96-7.78-9.41-12.3-2.44-4.52-4.22-6-6.3-5.78-2.07.22,1.63,1.85,2.67,4.52,1.04,2.67,7.63,13.56,11.19,16.89,3.56,3.33,0,6.74-5.56,4.96s-11.33-11.48-12.96-14.1-1.26-3.6-3.41-3.6-13.33.37-15.93-.59c-2.59-.96-3.41,2.15-4.15,3.85s-3.04-.81-3.85-3.56-1.7.74-.59,2.96c1.11,2.22,2.67,3.78,2.15,7.7s-4.96,1.07-7.37-4.78c-2.19-5.3,1.81-14.11,5.44-15.74Zm40.89,38.7c-2.37,7.16-8.24,15.37-7.63,11.53.87-5.51,3.04-12.59,4.74-14.89,1.7-2.3,5.26-3.79,2.89,3.36Zm-28.07,3.08c2.15,14.89,5.63,15.41,10.89,15.7,5.29.3,6.59-2.89,7.78-2.15s.81,4.67-4.87,5.48c-5.69.81-13.35-.81-16.46-9.19-3.11-8.37-2.42-23.07,1.7-28.52,1.85-2.44,2.44-1.41,2.22,2.52-.22,3.93-1.61,13.72-1.26,16.15Zm14.22-11.11c.52-4.22,2.37-5.19,2.3,5.19-.07,10.37-.94,15.2-1.56,13.56-2.11-5.65-1.26-14.52-.74-18.74Zm-.18,80.8c-2.94,2.28-3.33,1.11-4.28.06-.94-1.06,1.86-3.08,4.22-5.11,1.02-.88,1.89-.22,2.33.83.44,1.06.67,1.94-2.28,4.22Zm6.78,9.94c-2.11,2.11-3.28,1-4.5-1.39-1.22-2.39.66-5.54,3.22-7.56,2.61-2.06,4.78.44,5.5,2.17.72,1.72-2.11,4.67-4.22,6.78Zm3.61-21.22c1.11-2.44,3.89-5,5.39-4s5.67,3.94,4.83,5.56c-.83,1.61-3.13,3.95-3.85,4.89-1.85,2.42-2.09,2.61-4.31.89-2.22-1.72-3.17-4.89-2.06-7.33Zm20,1.33c-3.33-2.2-2.33-2.94-.61-5.28,1.72-2.33,3.83-5.11,4.17-.56.33,4.56-1.28,7.33-3.56,5.83Zm1.41,10.61c-1.57,2.05-5.52,8.06-7.13,6.94-1.61-1.11-6.44-4.21-5.22-6.3s3.89-5.31,5-6.37c1.11-1.06,2.44-.5,3.33.33.89.83,5,4.11,4.02,5.39Zm-4.52-21.28c-1.72,4-3.76,5.3-4.44,4.72-2.44-2.07-3.72-4.06-2.67-5.61,1.06-1.56,6.48-8.06,8.02-10,1.54-1.94,2.09-3.89,2.59-1.11s-1.78,8-3.5,12Zm-8.78,41.06c-2.44,2.78-5.06-.5-6.33-2.61-1.28-2.11.54-4.31,2.72-6.77,1.55-1.75,4.83.33,6.33,2.66,1.5,2.33-.28,3.94-2.72,6.72Zm10.44,8c-1.94,2.11-4.72.22-6-1.89-1.28-2.11.49-4.46,2.44-6.72.91-1.05,4.44.44,5.89,2.67,1.44,2.22-.39,3.83-2.33,5.94Zm6-15.39c-.56,4.28-3,2.28-4.17.44-1.17-1.83-.64-2.09,1.02-4.06,2.3-2.72,3.7-.67,3.15,3.61Zm3.08-74.81c-6.81,6.07-9.78,6.81-8.74,10.22,1.04,3.41-5.33,15.41-13.04,22.37s-24.59,16.15-29.04,16.15-3.7-2.52,1.19-4.59c4.89-2.07,16.89-8.74,21.33-15.26,4.44-6.52,5.63-7.7-1.48-2.07-7.11,5.63-17.93,14.07-24.44,14.96-6.52.89-6.81-1.33-.44-3.56,6.37-2.22,14.96-8.59,17.04-12,2.07-3.41,2.81-2.96-4.15-2.67-6.96.3-19.26.59-24.89-11.7-5.63-12.3-1.78-21.48-1.48-25.33.3-3.85,1.63-6.67,2.81-3.41s-2.67,15.56,2.96,24.44c5.63,8.89,18.07,10.96,26.07,10.22s8.74-4.15,9.48-8.3c.74-4.15,3.41-9.04,8.15-10.67,4.74-1.63,11.26-4,10.81-10.37s.69-12.31,1.48-15.7c2.62-11.29,8.3-15.85,7.11-17.48-1.19-1.63-11.56-10.67-12.15-20.74s5.93-10.22,7.7-7.41c1.78,2.81,5.78,12.74,10.52,16.59s6.52,14.22,6.22,23.11c-.3,8.89-6.22,27.11-13.04,33.19Zm8.19,39.33c.3-7.19,1.93,2.37,2.67,7.26.74,4.89-1.33,2.44-2,2.59-.67.15-.9-4.28-.67-9.85Zm2.82,38.03c-.16-4.85-2-24.82-1.46-24.76,1.22.13,3.67.14,4.19,3.69s0,11.38,1.11,13.21c1.11,1.83,1.41,1.75,2,5.01s.59,6.65-1.7,6.73-3.98.96-4.14-3.88Zm11.77,32.41c-4.37-1.93-7.97-6.57-5.06-7.04,3.63-.58,7.73-.89,7.95,1.33.22,2.22,1.48,7.63-2.89,5.7Zm1.26-11.85c-2.89.37-10.32.59-10.72-1.33s-1.22-11.41,0-11.56c1.53-.19,3.19.67,4.4,1.48s1.7-1.56,3.97-2,3.31-1.66,3.83,2.61c.52,4.28,1.41,10.42-1.48,10.79Zm-4.15-31.19c-.89-2.81-1.11-5.37-1.41-7.05-.92-5.17-1.11-7.59,0-7.08s3.41-.2,4.52,7.08c1.11,7.28,1.93,13.5,2.52,16.98s-.67,4.07-2.52,4.22c-1.85.15-2.44.07-3.41-4.59-.96-4.67,1.19-6.76.3-9.56Zm13.7,48.38c-2.07-.74-3.56-2.22-3.85-8.37-.3-6.15.67-9.63,0-12.37-.67-2.74-.55-4.51-.67-5.93-.38-4.47.96-6.67,2.81-2.89,1.85,3.78-1.19,9.33.52,10.67,1.7,1.33,1.97,5.41,2.32,9.56.35,4.15.94,10.07-1.13,9.33Zm28.59-153.21c-.43,6.36-6.81,23.01-19.32,33.84-12.51,10.83-17.45,12.53-20.36,13.92-2.91,1.39-6,4.02-2.79,7.43s27.27,49.59,32.13,61.08c4.86,11.49,6.16,17.87,6.86,10.44.71-7.43-3.18-62.05-4.03-70.3-.85-8.25-2.26-8.02-1.85-3.26s1.53,34.58.99,42.59c-.54,8.01-1,8.94-4.86.23-3.86-8.7-14.47-30.4-18.3-36.09-3.83-5.69-4.34-6.96-1.61-8.01,2.72-1.04,10.76-3.25,20.06-16.01,9.3-12.76,10.53-18.52,11.29-14.6s1.43,77.38,1.34,92.58c-.09,15.2.16,29.47.18,36.78.01,7.31-2.51,5.22-4.31-4.06s-15.27-40.34-21.33-51.56-20.2-33.78-25.95-39.96-4.87-7.11-1.92-8.73c2.95-1.62,19.52-11.37,27.53-17.06s18.05-17.87,21.47-24.72c3.42-6.85,5.04-8.11,4.79-4.52Zm-1.81-30.31c1.67-11.56,7.39-14.44,9.42-18.56s-1.69-4.56,0-10.89c1.69-6.33,4.03-7.44,3.81-9.78-.22-2.33-.89-3.56-2.33-.56-1.44,3-5.33,5.11-4.67,10.56.67,5.44.56,7.22-3.89,10.56-4.44,3.33-7.78,10.44-7.33,13,.44,2.56-6.11.22-2.11-7.78s6.56-7.11,8.67-11.67c2.11-4.56-2.44-7.78.67-11.56,3.11-3.78,3.22-5.33,2.11-8-1.11-2.67-1.56-1.44-2.11.44s-5.78,3.56-5.22,8.33c.56,4.78,1.51,8.56-2.8,12.56s-6.44-.67-4.76-6.22c1.68-5.56,3.45-13.92,8.12-17.57,4.67-3.65,5.56-7.98,4.89-11.09-.67-3.11-.47-1.56-2.01,1.11-1.54,2.67-6.43,3.33-8.1,7.44-1.67,4.11-4.44,3.7-1.56-1.93s4.8-2.96,6.23-8.18c1.43-5.22-.57-5.89-1.35-10.67s-.22-5.67,2.22-2.44c4.54,5.98,5,8.44,8.44,10.67,3.44,2.22,3.33,1.44,2.22,6.22-1.11,4.78.22,7.89,2.33,9.56,2.11,1.67,5,2.78,6.67,5.11,1.67,2.33-.11,5.44-2.22,8.33-2.11,2.89.78,7.78-1.78,12.44-2.56,4.67-8.11,11.22-8.22,14.11-.11,2.89,1.78-3,5.33-5.44s5-2.78,6.67-5.56c1.67-2.78,5.22-2,2.78,2.56s-8.58,7.65-12.67,12.33c-4.74,5.44-4.44,11.22-4.33,13,.11,1.78-4.78,1.11-3.11-10.44Zm7.26,8.78c1.89-7,8.11-10.89,14.33-14.11s8.78-8.78,9.44-12.11c1.63-8.13,8.44-11.11,11.22-11.78,2.78-.67,7.3-5.11,12.26-5.11s20.51-.44,24.4-.11c3.89.33,6.33,3.33,8.22,5,1.89,1.67,7,2.78,5.44,6.56s-.78,9.44,1.44,13.67c2.22,4.22,3.56,3.22,2.33-.89-1.22-4.11-.11-7.67,1-8.56,1.11-.89,5-.11,4.11,6.78s-1.22,10.78,2.56,14,9.89,12.22,7.44,20.89c-2.44,8.67-13,9.89-13.11,14.78s-2.56,6-5.78,7.33-3.67,1.56-4.89,3.78c-1.22,2.22-3-1.89,0-5.33s4.33-5.89,4.44-8.78c.02-.54-.62-.25-1.56.44-3,2.22-1.89-4,.78-7.78,2.67-3.78,2.67-9.74,1.33-16.26-1.33-6.52-1-15.3-3.44-21.74-2.44-6.44-5.22-10.89-5-7.89.22,3,1,11.33-.11,14.56-1.11,3.22-2.89.11-3.11-5.11-.22-5.22-3.22-9.67-5-11.44s-1.67-1,2.05-3.22c3.73-2.22,7.28-5.22,3.95-5.22s-19.33,1-24.89.11c-5.56-.89-9.54-1.56-7.66.89s6.3,4.67,5.03,6.78c-1.26,2.11-1.71,7.67-.93,11,.78,3.33-.33,9.11-7.56,14.44-7.22,5.33-16.33,17.44-13.11,27.56,3.22,10.11,2.33,10.78-.89,8.61-3.22-2.17-5-12.06-2-19.95s10-12.89,14-17.22c4-4.33,6.71-11.78,5.85-16-.85-4.22,1.05-7.89-.4-7.22s-4.23,5.44-3.68,10.22c.56,4.78-7.56,12.51-12.89,17.14-5.33,4.64-5.89,10.19-5.78,6.3.11-3.89,3-6.72,1.67-6.3-1.33.41-11.22,5.41-11.22,12.86s.78,10.01,2.06,12.12c1.27,2.1-4.28.33-4.84-7.45-.56-7.78-.22-15.67,8.44-19.67,8.67-4,15.89-9.22,16.44-16,.56-6.78,1.11-12.56-.33-12.56s-3.67,1.33-3.89,7.11c-.22,5.78-5.11,12-8.89,13.44-3.78,1.44,1.67-4.11-2.78-1.33-4.44,2.78-14.44,9.22-14.44,17.11s-4,2.67-2.11-4.33Zm51.44,28.52c-1.78-5.56.3-9.11,3.7-13.48s9.26-13.41,10-24.15-1.52-17.1-.81-18.07c.59-.81,1.19.15,2.89,3.33,1.7,3.19,2.59,10.22,1.41,17.33-1.19,7.11-5.48,17.41-9.78,23.19-4.3,5.78-3.11,10.22-1.26,10.59s5.26-6.59,6.52-11.33,3.56-2.6,3.7,1.03-1.63,7.48-4.22,12.67c-2.59,5.19-3.48,10.37-4.74,16.96s-3.11.81-2.74-4.81-2.89-7.7-4.67-13.26Zm-6.78,6.44c3.51,4.37,1.82,6.81.56,5.78s-5.11-4.96-9.41-11.33c-4.3-6.37-3.56-14.96,1.93-20.96,5.48-6,12.89-15.33,13.85-21.78.96-6.44-1.3-11.32-1.04-12.3.08-.29,1.41-.15,2.37,2,.96,2.15,3.41,6.96,0,17.26-3.41,10.3-11.63,15.41-13.41,21.56-1.78,6.15,1.63,15.41,5.14,19.78Zm5.3-27.35c2.81-4.53,6.59-12.14,7.48-17.62s-1.76-12.06-.89-13.11c1.48-1.78,4.52,6.74,3.56,14.67-.96,7.93-4.67,12.37-6.37,17.04-1.7,4.67-3.56,7.48-4.74,7.33-1.19-.15-1.85-3.78.96-8.31Zm20.15,21.2c3.78-8.44,1.04-14.3-.94-17.04s-.41-10.46,1.9-12c1.56-1.04,2,.74,4.67,3.78,2.67,3.04,4.74,10.15,2.81,16.3-1.93,6.15.96,3.63.81,6.15-.15,2.52-6.81,7.48-10.2,13.78-3.38,6.3-4.32,6.3-4.76,3.33-.44-2.96,1.93-5.85,5.7-14.3Zm-64.11,56.13c2.22,1.67,1.83,2.56.67,4-1.17,1.44-3.05,2.79-3.13-.11-.13-4.3.24-5.56,2.47-3.89Zm-1.11,25.22c2.47,1.49,3.72,2.67,1.94,5.17s-3.11,3.56-3.28.33c-.17-3.22.7-5.88,1.33-5.5Zm51.14-.06c-.56-5.33-5.44-11.44-15.33-21.33s-8.54-16.19-6.44-13.67c4.09,4.93,10.33,11.67,14.78,15.33s8,6.44,7.89,1.44c-.11-5-1.89-6.78-4-8.56-2.11-1.78-1.76-2.89,1.84-2.56,3.6.33,6.38-.11,8.6-2.44,2.22-2.33,4.89-1.67,2.44,3-2.44,4.67-3.22,7.56-2.56,10,.67,2.44,4.78.33,6.22-4.67,1.44-5,6.33-14.22,10.33-17,4-2.78,6.22-4.92,3.11,2.26-3.11,7.18-8.11,21.4-13,30.29-4.89,8.89-6.78,13.33-6.44,15,.33,1.67,4.44-3.11,9.56-12.11,5.11-9,12.22-22.22,17.22-32.11s12.78-20.44,8.33-8.33-14.67,34-19.22,44.22c-4.56,10.22-11.33,20.22-12.78,22.78-1.44,2.56-2.67,2-7-2.89s-22.89-25.22-33.44-39.78c-10.56-14.56-15.44-26.11-9.89-19.33,5.56,6.78,18.33,22.89,25.78,31.11s14.56,14.67,14,9.33Zm30.64,52.94c-1.11-1.44-5.67-7.06-6.33-8.06s1.06-2.44,2.82-4.11c4.94-4.67,5.56-4.5,7.09-2.67s4.31,5.78,5.03,7.22-.56,2.89-3.5,5.94-4,3.11-5.11,1.67Zm-1.5,18.39c-2.89.33,1.16-3.16,2.39-4.17,1.07-.88,1.22-1.56,2.17,1.11.94,2.67-1.67,2.72-4.56,3.06Zm-77.65-20.33c-.96-.96.52-2.07,2.37-4.37,1.85-2.3,2.67-3.48,4.52-1.85,1.85,1.63,2.81,2.74,3.93,3.56s1.48,2.37,0,3.85c-1.56,1.55-4.22,4.44-5.56,3.7s-4.3-3.93-5.26-4.89Zm-3.85,12.74c.1-3.75,3.48-.67,4.59.07s-4.74,5.56-4.59-.07Zm4.89-45.63c.89-1.85,3.87-5.26,5.38-3.85,1.51,1.41,6.43,6.22,5.38,8.07-1.05,1.85-6.53,6.96-7.12,4.96-1.01-3.4-4.52-7.33-3.63-9.19Zm15.26,40.59c1.29-1.39,2.52-.96,3.41,0,.89.96,3.85,4.52,5.41,5.93,1.56,1.41-1.19,2.96-3.48,4.59s-2.22,1.7-3.85.59-5.93-4.81-6.3-5.78,2.73-3.1,4.81-5.33Zm4.3-15.38c-1.04,1.09-1.63,1.8-4.59-1.14-2.64-2.62-5.85-5.78-5.04-6.81.81-1.04,4.67-4.44,6.15-6.22,1.48-1.78,2.22-2.07,3.41-.59,1.19,1.48,3.69,4.07,5.11,5.93,1.41,1.85,1.06,2.44-.06,4s-3.94,3.75-4.97,4.84Zm5.33-36.02c-.81,1.93-5.48,7.41-6.3,6.96-.81-.44-2.92-2.1-3.85-3.11-3.66-3.97-3.78-4.81-2.37-6.89,1.41-2.07,4.44-6.59,6.22-4.96s7.11,6.07,6.3,8Zm2.22,10.59c1.78-1.85,3.41-3.26,4.74-1.56s7.11,7.85,8.74,9.04c1.63,1.19.07,2.44-1.93,4.52-2,2.07-3.85,3.55-5.11,2.18-2.34-2.55-6.81-7.23-8.79-9.3-.57-.59-.6-1.51-.08-2.15.62-.74,1.49-1.76,2.42-2.73Zm-.15,29.93c2-2.15,4.07-4.89,6.37-3.04s6.37,6.25,5.7,7.35c-.67,1.1-3.41,3.26-4.81,4.8-1.62,1.78-2.3,3.26-3.56,1.63s-4.96-5.48-5.78-6.81c-.81-1.33.07-1.78,2.07-3.93Zm9.14,15.41c.92-.89,4.42-4.13,6.41-6.3,1.14-1.23,1.7-.3,2.81.96,1.11,1.26,2.07,2.37,1.33,3.41-.74,1.04-5.19,5.7-6.76,6.96-1.57,1.26-2.95-.15-4.13-1.87-1.19-1.72-.59-2.28.33-3.17Zm9.3,7.11c1.11-1.19,2.35-3.36,4.15-4.89,2.96-2.52,4.96,1.93,5.93,4.67.96,2.74-3.78,1.93-7.63,1.78-3.85-.15-3.56-.37-2.44-1.56Zm8.18-17.8c-.83.68-2.06.49-2.65-.41-2.84-4.31-9.77-11.73-10.79-12.31-1.19-.67,2.3-3.26,5.56-5.19,3.26-1.93,4-.59,6.74,1.48,2.74,2.07,6.74,7.08,7.48,8.13.74,1.05-1.26,3.79-3.26,5.64-.99.91-2.15,1.89-3.08,2.65Zm5.4,5.24l5.41-5.16c.69-.66,1.78-.66,2.47,0,2.19,2.08,6.56,6.3,7.06,7.12.67,1.11-2.67,4.22-5.41,6.65-2.74,2.43-2.52,3.35-4.22.83-1.2-1.77-3.95-5.17-5.46-7.02-.59-.72-.53-1.78.15-2.43Zm2.63-25.61c.72-1.06,4.63-5.21,6.44-7.11,1.57-1.64,5.33,2.94,6.17,4.06.83,1.11.44,2.17-2.67,5.17s-5.06,5.61-6.39,4.28-4.28-5.33-3.56-6.39Zm17.5-10.8c-.96-1.7-3.11-5.93-3.41-6.74-.3-.81,2.61-3.9,4.22-5.56,2.12-2.18,7.11,2.96,7.7,4.52.59,1.56-2.96,4.52-4.96,6.74-2,2.22-2.59,2.74-3.56,1.04Zm6.67-34.53c-.22-2.55.39-2.78,1.83-4.01,1.53-1.3,4.22,1,1.72,3.67-2.5,2.67-3.33,2.89-3.56.34Zm-78.61,6.82c-.72,1.5-3.3,3.08-3.78,2.72-2.46-1.83-3.89-3.72-3.78-5.89.11-2.17.83-2.94,4.17-1.17,3.33,1.78,4.11,2.83,3.39,4.33Zm-8.51,41.56c-1.51,1.56-2.75,1.7-2.66-.37.23-5.33,1.39-5.5,2.66-3.97s1.51,2.78,0,4.34Zm34.01,71.61c-.85-2.93-1.28-3.33-3.67-5.28-2.39-1.94-1.44-2.72,2.11-2.5,3.56.22,4.11,1.39,4.33,4.67.22,3.28-2.44,4.26-2.78,3.11Zm17.22-5.56c-.67,4.39-6.06,9.39-6.83,7.11-2.11-6.24-3.11-10,0-10.17s7.5-1.33,6.83,3.06Zm31.8-19.26c-3.69,3.43-12.47,4.65-16.13,5.43-3.67.78,1.86,2.89-7.13,4.67-8.98,1.78-36.02,1.33-46.89-1.56s-4.32-2.22,3.68-2.44c8-.22,8.67-1-3-3.33-11.67-2.33-22.54-7.5-14.37-6.78,4.91.43,35.04,4.33,44.82,4,9.78-.33,25.67-.2,33.89-1.99,8.22-1.79,8.82-1.42,5.13,2.01Zm5.23-20.02c-1.25-1.67-1.71-2.86.64-3.61,1.22-.39,2.28-1.39,2.28,2.22s-1.67,3.06-2.91,1.38Zm4.43-28.49c-.09,4.11-4.68-1.83-5.57-2.89s-.49-1.95,2.44-4.33c2.94-2.39,3.22,3.11,3.13,7.22Zm.76-32c-.39,5.56-2.94,2-4.56,0s-.24-3.6,2.06-4.61c1.16-.51,2.89-.94,2.5,4.61Zm5.14-74.39c-1,4-3.67,9.33-13,15.91-9.33,6.58-23.89,11.76-30.44,15.76-6.56,4-9.89,5-27.56-2.89-17.67-7.89-27.89-20.78-29.67-22.56-1.78-1.78-2.05-6.21-1.89-9.11.1-1.78,1.44-2.22,4.22,2.22,2.78,4.44,8.33,11.11,13.67,14.78s11,5.78,8,3.78-9-7.44-10.78-10.11c-1.78-2.67,6.44,1.11,14.33,6.83s14.33,4.28,19.22,8.17c4.89,3.89,5.11,3.22,7.89-.56,2.78-3.78,14.33-9.22,21.22-12.11,6.89-2.89,17.33-7.44,21.44-13s4.33-1.11,3.33,2.89Zm1.08-20.44c2.32-6.42,3-17.56-1.11-22.11-4.11-4.56-7.56-9-7.78-12.67-.22-3.67.41-1.38,3.56,2.67,1.56,2,11.11,8.15,11.56,17.74.44,9.59-2.33,12.59-4.67,15.15-2.33,2.56-2.05.58-1.56-.78Zm30.11,147.28c-1.67,1.06-5.17,3.39-4.28.22.89-3.17,2.67-9.43,5.17-11.14,1.5-1.03,1.28,2.3,1.39,4.79.11,2.49-.61,5.07-2.28,6.12Zm3.83-18.94c-1.06,4.44-4.67,5-4.67,3.24s1.49-7.72,3.44-10.13c1.94-2.39,2.28,2.44,1.22,6.89Zm10.5,6.61c-.5,3.33-3.67,4.78-5.61,6-1.94,1.22-1.22-3.22-.56-5.11.67-1.89,1.55-2.23,3.78-3.72,1.77-1.18,2.89-.5,2.39,2.83Zm1.33-10.94c-.44,2.94-1.83,3.06-4.39,4.39-2.56,1.33-2.17-.94-1.94-4.22.22-3.28.65-3.69,3.5-5.65,1.87-1.29,3.28,2.54,2.83,5.48Zm.44-12.4c-.61,4.1-5.22,3.62-5.22,2.05s1.4-6.47,3.11-8.65c3.06-3.89,2.72,2.5,2.11,6.6Zm9.11,18.62c-.5,2.11-4.83,5.72-4.89,2.61-.06-3.11.95-4.22,2.83-5.33,1.26-.74,2.56.61,2.06,2.72Zm1.5-13.56c-.17,2.94-.83,4.5-2.81,5.78-1.98,1.28-2.86,1.72-3.14-1.67-.28-3.39,1.04-4.51,3.56-6.61,1.37-1.14,2.56-.44,2.39,2.5Zm0-7.17c-1.72,2.22-4.17,2.56-4.17-.61s1.58-6.19,3.5-8.28c1.17-1.27,2.56-.94,2.39,1.38-.17,2.33,0,5.28-1.72,7.51Zm3.83-19.94c-.28,5-1.83,6.06-4.56,7.44-2.72,1.39-2-3.5-2-5.17s3-2.94,4.11-5.28-1.06-4.11.56-5.72c2.28-2.28,2.17,3.72,1.89,8.72Zm.58-29.97c-6.11,5.92-21.33,27.53-27.89,38.27-6.56,10.74-21.33,40.48-23.44,49.37s-4.78,10.89-4.56,3.89c.22-7,.89-20.67,1.22-35.22.33-14.56,3.11-84.89,4-88.65s2,1.76,11.22,13.98c9.22,12.22,17.44,14.33,20.22,15.33,2.78,1,2.22,2.22-1.89,7.67-4.11,5.44-15.67,26.22-19.89,34.56-4.22,8.33-4.67,7.44-5-.22s1.67-36.22,2.22-40.78c.56-4.56-.89-4.78-2,3.13s-6.67,60.21-6.15,67.32,2.04,1,7.37-10,31.44-55.22,34.85-58.48c3.41-3.26.3-5.78-2.67-7.11-2.96-1.33-8-2.96-20.59-13.33-12.59-10.37-18.7-26.31-18.96-32.4-.15-3.44,1.48-2.23,4.81,4.33,3.33,6.56,13.33,18.22,21.43,23.67,8.1,5.44,24.9,14.78,27.9,16.33,3,1.56,3.89,2.44-2.22,8.36Zm5.7,57.04c-.81-1.85-.28-3.22,1.33-4.56.97-.81,2.67-.93,3.07,2.44.41,3.37-3.59,3.96-4.41,2.11Zm8.15-25.19c-2.74,2.81-4.89,3.78-5.56,1.78-.67-2,.56-3.12,4.15-5.63,1.59-1.11,4.15,1.04,1.41,3.85Zm10.76,10.94c-.44.66-3.11,3.89-4.33,5.17-1.22,1.28-2.11.44-3.3-1.83-1.19-2.28-2.03-4.11-1.91-4.72s2.1-2.57,3.83-4.39c2.35-2.47,4.22,1.61,5.06,3.11s1.11,2,.67,2.66Zm-1.83-17.83c-1.96-2.89-4.11-6.3-3.15-7.11s3.72-4.01,6.3-5.63c2-1.26,5.19,2.37,6.74,4.74,1.56,2.37,1.19,2.07-2.59,5.48-3.78,3.41-5.33,5.41-7.3,2.52Zm13.37,3.11c-.74,2.37-3.41,7.19-6,9.56-2.59,2.37-3.09-2.58-3.69-4.5-.59-1.92,1.82-3.38,5.82-6.78,3.09-2.63,4.61-.65,3.87,1.72Zm7.24-13.62c-2.85,1.63-3.73,1.88-4.37,1.27-.63-.61-2.41-3.25-3.46-5.79s-.31-2.98.58-3.62,4.74-3.55,6.84-4.76c.99-.57,2.28-.2,3.05,1.67.77,1.87,2.79,6.13,2.95,7.22s-2.74,2.37-5.59,4Zm11.5-14.01c-2.15,4.96-2.37,4.3-3.04,3.85-.67-.44-2.67-5.11-2.87-6.22-.2-1.11,3.97-3.57,6.83-5.41,1.27-.81,1.23,2.81-.92,7.78Zm2.72-20.7c-1.42-2.01-3.83-5.33-3.11-6.89s3.28-3.39,4.11-3.56c.83-.17,1.83.39,2.28,4.5s-1.57,8.37-3.28,5.94Z" fill="currentColor"/>
</svg>