<svg width="250" height="250" viewBox="0 0 250 250" fill="none" xmlns="http://www.w3.org/2000/svg">
<path d="M215.97 130.1C205.91 99.06 175.74 84.41 151.6 51.93C136.19 31.19 129.64 18.31 126.92 11.7C125.38 7.95999 124.61 8.04999 122.98 11.97C120.19 18.65 113.62 31.47 98.4098 51.92C74.2698 84.39 44.0998 99.05 34.0398 130.09C23.9798 161.13 39.2098 191.01 63.9298 195.32C88.6398 199.63 110.2 179.8 113.36 171.18C116.52 162.56 121.12 165.15 120.54 172.9C119.97 180.66 115.65 204.51 98.9898 227.21C95.7598 231.22 92.7598 234.41 90.4398 236.71C88.8498 238.29 89.9798 241 92.2198 241H157.8C160.04 241 161.17 238.28 159.58 236.71C157.26 234.41 154.26 231.22 151.03 227.21C134.36 204.51 130.05 180.66 129.48 172.9C128.91 165.14 133.5 162.55 136.66 171.18C139.82 179.8 161.37 199.63 186.09 195.32C210.8 191.01 226.04 161.12 215.98 130.09L215.97 130.1Z" fill="black"/>
</svg>
