<svg width="11" height="13" viewBox="0 0 11 13" fill="none" xmlns="http://www.w3.org/2000/svg">
<path d="M5 8H6C6 9.61833 6.55078 11.1885 7.56174 12.4522L8 13H3L3.43826 12.4522C4.44922 11.1885 5 9.61833 5 8Z" fill="black"/>
<path d="M5.50001 0L7.79167 2.05128L8.66244 3.02557C9.30267 3.74191 9.87259 4.5181 10.3644 5.34344L10.5417 5.64103C10.8374 6.3028 10.8862 7.04863 10.6793 7.7433L10.5417 8.20513L10.4995 8.32426C10.2373 9.06504 9.6439 9.64068 8.8955 9.88026C8.64764 9.95961 8.38898 10 8.12874 10H7.33333L7.06268 9.94953C6.37113 9.82057 5.78702 9.36021 5.50001 8.71795L5.48561 8.75019C5.2088 9.36959 4.63687 9.80643 3.96646 9.91051L3.39002 10H2.97813C2.45961 10 1.95102 9.85787 1.50762 9.58905C1.12282 9.35576 0.818307 9.01066 0.634711 8.59982L0.458333 8.20513C0.162605 7.54336 0.113792 6.79753 0.320746 6.10286L0.427544 5.74437C0.447991 5.67574 0.476874 5.60991 0.51353 5.54839L0.980675 4.76437C1.24295 4.32418 1.54691 3.91022 1.88837 3.52817L3.20833 2.05128L5.50001 0Z" fill="black"/>
</svg>
